<?xml version="1.0" encoding="utf-8"?>
<!-- Generator: Adobe Illustrator 16.0.0, SVG Export Plug-In . SVG Version: 6.00 Build 0)  -->
<!DOCTYPE svg PUBLIC "-//W3C//DTD SVG 1.1//EN" "http://www.w3.org/Graphics/SVG/1.1/DTD/svg11.dtd">
<svg version="1.1" id="Layer_1" xmlns="http://www.w3.org/2000/svg" xmlns:xlink="http://www.w3.org/1999/xlink" x="0px" y="0px"
	 width="900px" height="600px" viewBox="0 0 900 600" enable-background="new 0 0 900 600" xml:space="preserve">
<rect x="0" fill="#B4975A" width="900" height="600"/>
<path fill="#E7EAEB" d="M576.03,50.824h6.12v-2.04h-6.12V50.824z M550.375,58v-5.784c0-2.664-0.049-4.8-0.169-6.888l0.097-0.024
	c0.792,1.824,1.849,3.792,2.88,5.568L557.406,58h3.071V41.824h-2.735v5.64c0,2.472,0.048,4.56,0.265,6.696l-0.048,0.024
	c-0.744-1.752-1.704-3.624-2.761-5.424l-4.176-6.936h-3.385V58H550.375z M540.137,48.424h-6.096v-4.176h6.455v-2.424h-9.407V58
	h9.769v-2.424h-6.816v-4.752h6.097L540.137,48.424L540.137,48.424z M520.584,58h2.951V41.824h-2.951V58z M505.574,44.08
	c0.288-0.072,0.889-0.144,1.824-0.144c1.92,0,3.145,0.84,3.145,2.592c0,1.608-1.225,2.664-3.217,2.664h-1.752V44.08z M502.647,58
	h2.928v-6.648h1.487c1.681,0.048,2.425,0.72,2.904,2.832c0.433,2.016,0.84,3.336,1.08,3.816h3.023
	c-0.312-0.624-0.744-2.496-1.271-4.512c-0.384-1.56-1.08-2.688-2.256-3.12v-0.072c1.535-0.528,2.951-1.944,2.951-4.032
	c0-1.392-0.504-2.52-1.392-3.264c-1.104-0.912-2.664-1.296-4.992-1.296c-1.704,0-3.336,0.144-4.464,0.36L502.647,58L502.647,58z
	 M495.133,48.424h-6.097v-4.176h6.456v-2.424h-9.407V58h9.768v-2.424h-6.815v-4.752h6.097L495.133,48.424L495.133,48.424z
	 M470.234,58h2.951v-6.888h5.952v-2.4h-5.952v-4.464h6.408v-2.424h-9.359V58L470.234,58z M452.985,57.232
	c0.888,0.528,2.664,1.008,4.393,1.008c4.151,0,6.119-2.232,6.119-4.848c0-2.304-1.344-3.72-4.151-4.8
	c-2.16-0.816-3.097-1.392-3.097-2.64c0-0.96,0.792-1.944,2.664-1.944c1.513,0,2.641,0.456,3.24,0.768l0.695-2.4
	c-0.84-0.408-2.111-0.792-3.863-0.792c-3.528,0-5.736,1.992-5.736,4.656c0,2.304,1.704,3.744,4.393,4.68
	c2.04,0.744,2.855,1.464,2.855,2.688c0,1.32-1.056,2.208-2.928,2.208c-1.513,0-2.977-0.48-3.912-1.032L452.985,57.232z
	 M438.9,50.584h1.464c2.04,0,3.696,0.768,3.696,2.64c0,2.016-1.704,2.712-3.6,2.712c-0.673,0-1.177,0-1.561-0.072V50.584z
	 M438.9,44.008c0.312-0.072,0.816-0.12,1.68-0.12c1.872,0,3.024,0.696,3.024,2.232c0,1.368-1.128,2.328-3.192,2.328H438.9V44.008z
	 M435.972,57.952c0.768,0.096,1.992,0.216,3.624,0.216c2.976,0,4.872-0.504,6.023-1.512c0.912-0.768,1.536-1.896,1.536-3.336
	c0-2.208-1.56-3.552-3.264-3.984v-0.072c1.752-0.648,2.688-1.992,2.688-3.48c0-1.392-0.672-2.448-1.68-3.048
	c-1.08-0.744-2.448-1.032-4.608-1.032c-1.68,0-3.384,0.168-4.319,0.36V57.952L435.972,57.952z M428.457,48.424h-6.096v-4.176h6.456
	v-2.424h-9.408V58h9.769v-2.424h-6.816v-4.752h6.096V48.424z M408.906,58h2.952V41.824h-2.952V58z M393.897,44.08
	c0.288-0.072,0.888-0.144,1.824-0.144c1.92,0,3.144,0.84,3.144,2.592c0,1.608-1.224,2.664-3.216,2.664h-1.752V44.08z M390.969,58
	h2.928v-6.648h1.488c1.68,0.048,2.424,0.72,2.903,2.832c0.433,2.016,0.841,3.336,1.08,3.816h3.024
	c-0.312-0.624-0.744-2.496-1.272-4.512c-0.384-1.56-1.08-2.688-2.256-3.12v-0.072c1.536-0.528,2.952-1.944,2.952-4.032
	c0-1.392-0.504-2.52-1.392-3.264c-1.104-0.912-2.664-1.296-4.992-1.296c-1.704,0-3.336,0.144-4.464,0.36V58L390.969,58z M377.34,58
	h2.951V44.296h4.656v-2.472h-12.216v2.472h4.608V58z M366.571,48.424h-6.096v-4.176h6.456v-2.424h-9.408V58h9.769v-2.424h-6.816
	v-4.752h6.096V48.424z M342.448,50.584h1.464c2.04,0,3.696,0.768,3.696,2.64c0,2.016-1.704,2.712-3.6,2.712
	c-0.672,0-1.177,0-1.561-0.072V50.584z M342.448,44.008c0.312-0.072,0.816-0.12,1.681-0.12c1.872,0,3.023,0.696,3.023,2.232
	c0,1.368-1.128,2.328-3.191,2.328h-1.513V44.008z M339.521,57.952c0.768,0.096,1.992,0.216,3.624,0.216
	c2.976,0,4.872-0.504,6.024-1.512c0.911-0.768,1.535-1.896,1.535-3.336c0-2.208-1.56-3.552-3.264-3.984v-0.072
	c1.752-0.648,2.688-1.992,2.688-3.48c0-1.392-0.673-2.448-1.681-3.048c-1.08-0.744-2.448-1.032-4.607-1.032
	c-1.681,0-3.385,0.168-4.32,0.36V57.952L339.521,57.952z M317.85,50.824h6.12v-2.04h-6.12V50.824z"/>
<g>
	<path fill="#E7EAEB" d="M677.202,434.246h-32.352l-4.032,31.488c2.4-0.287,4.992-0.576,8.544-0.576
		c12.384,0,17.664,4.705,17.664,11.904c0,7.393-6.624,11.328-13.536,11.328c-5.664,0-11.04-1.824-13.728-3.264l-2.4,8.928
		c3.265,1.824,9.312,3.648,16.608,3.648c15.264,0,25.151-9.697,25.151-21.6c0-7.584-3.456-12.865-8.159-15.842
		c-4.128-2.783-9.696-4.031-15.168-4.031c-1.824,0-3.072,0.096-4.416,0.289l1.823-12.48h24V434.246z M607.21,496.646h11.424v-62.4
		h-9.792l-15.265,7.488l2.017,8.928l11.424-5.76h0.192V496.646z M559.421,488.678c-6.528,0-10.752-8.256-10.561-23.424
		c0-14.783,4.225-23.039,10.752-23.039c7.104,0,10.561,8.543,10.561,23.039c0,14.977-3.553,23.424-10.656,23.424H559.421z
		 M559.229,497.703c14.976,0,22.752-12.576,22.752-32.736c0-18.336-7.008-31.775-22.08-31.775
		c-14.592,0-22.848,12.959-22.848,32.447c0.096,19.008,7.775,32.064,22.08,32.064H559.229z M525.668,496.646v-9.695h-25.537v-0.193
		l5.377-4.703c10.943-10.08,18.815-18.912,18.815-29.951c0-10.178-6.72-18.912-20.544-18.912c-7.871,0-14.688,2.783-19.199,6.432
		l3.455,8.352c3.168-2.4,7.776-5.184,13.344-5.184c8.16,0,11.137,4.896,11.137,10.561c-0.096,8.256-7.008,15.742-21.696,29.279
		l-7.392,6.912v7.104H525.668z M462.365,497.703c4.416,0,7.297-3.264,7.297-7.584c0-4.512-2.977-7.584-7.297-7.584
		c-4.224,0-7.296,3.168-7.296,7.584c0,4.32,2.976,7.584,7.2,7.584H462.365z M421.5,488.678c-6.528,0-10.752-8.256-10.56-23.424
		c0-14.783,4.224-23.039,10.752-23.039c7.104,0,10.56,8.543,10.56,23.039c0,14.977-3.552,23.424-10.656,23.424H421.5z
		 M421.308,497.703c14.976,0,22.752-12.576,22.752-32.736c0-18.336-7.008-31.775-22.08-31.775
		c-14.592,0-22.848,12.959-22.848,32.447c0.096,19.008,7.776,32.064,22.08,32.064H421.308z M368.182,496.646h11.424v-62.4h-9.792
		l-15.264,7.488l2.016,8.928l11.424-5.76h0.192V496.646z M338.422,497.703c4.416,0,7.296-3.264,7.296-7.584
		c0-4.512-2.976-7.584-7.296-7.584c-4.224,0-7.296,3.168-7.296,7.584c0,4.32,2.976,7.584,7.2,7.584H338.422z M316.276,434.246
		h-32.352l-4.032,31.488c2.4-0.287,4.992-0.576,8.544-0.576c12.384,0,17.664,4.705,17.664,11.904
		c0,7.393-6.624,11.328-13.536,11.328c-5.664,0-11.04-1.824-13.728-3.264l-2.4,8.928c3.264,1.824,9.312,3.648,16.608,3.648
		c15.264,0,25.152-9.697,25.152-21.6c0-7.584-3.456-12.865-8.16-15.842c-4.128-2.783-9.696-4.031-15.168-4.031
		c-1.824,0-3.072,0.096-4.416,0.289l1.824-12.48h24V434.246z M243.556,488.678c-6.528,0-10.752-8.256-10.56-23.424
		c0-14.783,4.224-23.039,10.752-23.039c7.104,0,10.56,8.543,10.56,23.039c0,14.977-3.552,23.424-10.656,23.424H243.556z
		 M243.364,497.703c14.976,0,22.752-12.576,22.752-32.736c0-18.336-7.008-31.775-22.08-31.775
		c-14.592,0-22.848,12.959-22.848,32.447c0.096,19.008,7.776,32.064,22.08,32.064H243.364z"/>
	<path fill="none" stroke="#E7EAEB" stroke-width="0.375" stroke-miterlimit="7.5" d="M677.202,434.246h-32.352l-4.032,31.488
		c2.4-0.287,4.992-0.576,8.544-0.576c12.384,0,17.664,4.705,17.664,11.904c0,7.393-6.624,11.328-13.536,11.328
		c-5.664,0-11.04-1.824-13.728-3.264l-2.4,8.928c3.265,1.824,9.312,3.648,16.608,3.648c15.264,0,25.151-9.697,25.151-21.6
		c0-7.584-3.456-12.865-8.159-15.842c-4.128-2.783-9.696-4.031-15.168-4.031c-1.824,0-3.072,0.096-4.416,0.289l1.823-12.48h24
		V434.246z M607.21,496.646h11.424v-62.4h-9.792l-15.265,7.488l2.017,8.928l11.424-5.76h0.192V496.646z M559.421,488.678
		c-6.528,0-10.752-8.256-10.561-23.424c0-14.783,4.225-23.039,10.752-23.039c7.104,0,10.561,8.543,10.561,23.039
		c0,14.977-3.553,23.424-10.656,23.424H559.421z M559.229,497.703c14.976,0,22.752-12.576,22.752-32.736
		c0-18.336-7.008-31.775-22.08-31.775c-14.592,0-22.848,12.959-22.848,32.447c0.096,19.008,7.775,32.064,22.08,32.064H559.229z
		 M525.668,496.646v-9.695h-25.537v-0.193l5.377-4.703c10.943-10.08,18.815-18.912,18.815-29.951
		c0-10.178-6.72-18.912-20.544-18.912c-7.871,0-14.688,2.783-19.199,6.432l3.455,8.352c3.168-2.4,7.776-5.184,13.344-5.184
		c8.16,0,11.137,4.896,11.137,10.561c-0.096,8.256-7.008,15.742-21.696,29.279l-7.392,6.912v7.104H525.668z M462.365,497.703
		c4.416,0,7.297-3.264,7.297-7.584c0-4.512-2.977-7.584-7.297-7.584c-4.224,0-7.296,3.168-7.296,7.584c0,4.32,2.976,7.584,7.2,7.584
		H462.365z M421.5,488.678c-6.528,0-10.752-8.256-10.56-23.424c0-14.783,4.224-23.039,10.752-23.039
		c7.104,0,10.56,8.543,10.56,23.039c0,14.977-3.552,23.424-10.656,23.424H421.5z M421.308,497.703
		c14.976,0,22.752-12.576,22.752-32.736c0-18.336-7.008-31.775-22.08-31.775c-14.592,0-22.848,12.959-22.848,32.447
		c0.096,19.008,7.776,32.064,22.08,32.064H421.308z M368.182,496.646h11.424v-62.4h-9.792l-15.264,7.488l2.016,8.928l11.424-5.76
		h0.192V496.646z M338.422,497.703c4.416,0,7.296-3.264,7.296-7.584c0-4.512-2.976-7.584-7.296-7.584
		c-4.224,0-7.296,3.168-7.296,7.584c0,4.32,2.976,7.584,7.2,7.584H338.422z M316.276,434.246h-32.352l-4.032,31.488
		c2.4-0.287,4.992-0.576,8.544-0.576c12.384,0,17.664,4.705,17.664,11.904c0,7.393-6.624,11.328-13.536,11.328
		c-5.664,0-11.04-1.824-13.728-3.264l-2.4,8.928c3.264,1.824,9.312,3.648,16.608,3.648c15.264,0,25.152-9.697,25.152-21.6
		c0-7.584-3.456-12.865-8.16-15.842c-4.128-2.783-9.696-4.031-15.168-4.031c-1.824,0-3.072,0.096-4.416,0.289l1.824-12.48h24
		V434.246z M243.556,488.678c-6.528,0-10.752-8.256-10.56-23.424c0-14.783,4.224-23.039,10.752-23.039
		c7.104,0,10.56,8.543,10.56,23.039c0,14.977-3.552,23.424-10.656,23.424H243.556z M243.364,497.703
		c14.976,0,22.752-12.576,22.752-32.736c0-18.336-7.008-31.775-22.08-31.775c-14.592,0-22.848,12.959-22.848,32.447
		c0.096,19.008,7.776,32.064,22.08,32.064H243.364z"/>
	<path fill="#E7EAEB" d="M478.705,389.342c3.456,1.92,8.544,3.266,14.208,3.266c12.384,0,19.009-6.145,19.009-14.689
		c-0.097-6.912-3.937-11.23-12.48-14.207c-5.952-2.209-8.16-3.553-8.16-6.527c0-2.881,2.304-4.992,6.527-4.992
		c4.129,0,7.969,1.535,9.889,2.688l2.4-8.256c-2.785-1.537-7.297-2.785-12.48-2.785c-10.848,0-17.664,6.336-17.664,14.592
		c0,5.568,3.744,10.561,12.864,13.633c5.76,2.111,7.68,3.648,7.68,6.816c0,3.072-2.304,5.279-7.487,5.279
		c-4.225,0-9.312-1.824-11.904-3.455L478.705,389.342z M459.727,338.174c4.031,0,6.623-2.879,6.623-6.336
		c-0.096-3.646-2.592-6.432-6.623-6.432c-3.937,0-6.625,2.785-6.625,6.432c0,3.457,2.593,6.336,6.529,6.336H459.727z
		 M465.582,344.895h-11.808v46.752h11.808V344.895z M405.573,364.768c0-1.152,0.192-2.209,0.384-3.072
		c1.248-5.186,5.664-8.641,10.464-8.641c7.872,0,11.808,6.721,11.808,14.977c0,9.504-4.512,15.359-11.904,15.359
		c-5.088,0-9.216-3.455-10.464-8.256c-0.192-0.863-0.288-1.824-0.288-2.783V364.768z M393.765,378.59
		c0,4.705-0.192,9.889-0.384,13.057h10.08l0.576-7.008h0.192c3.36,5.76,8.736,8.064,14.784,8.064
		c10.56,0,21.216-8.352,21.216-25.152c0.096-14.209-8.064-23.713-19.488-23.713c-7.008,0-12.096,2.977-14.976,7.488h-0.192v-27.936
		h-11.808V378.59z"/>
	<path fill="none" stroke="#E7EAEB" stroke-width="0.375" stroke-miterlimit="7.5" d="M478.705,389.342
		c3.456,1.92,8.544,3.266,14.208,3.266c12.384,0,19.009-6.145,19.009-14.689c-0.097-6.912-3.937-11.23-12.48-14.207
		c-5.952-2.209-8.16-3.553-8.16-6.527c0-2.881,2.304-4.992,6.527-4.992c4.129,0,7.969,1.535,9.889,2.688l2.4-8.256
		c-2.785-1.537-7.297-2.785-12.48-2.785c-10.848,0-17.664,6.336-17.664,14.592c0,5.568,3.744,10.561,12.864,13.633
		c5.76,2.111,7.68,3.648,7.68,6.816c0,3.072-2.304,5.279-7.487,5.279c-4.225,0-9.312-1.824-11.904-3.455L478.705,389.342z
		 M459.727,338.174c4.031,0,6.623-2.879,6.623-6.336c-0.096-3.646-2.592-6.432-6.623-6.432c-3.937,0-6.625,2.785-6.625,6.432
		c0,3.457,2.593,6.336,6.529,6.336H459.727z M465.582,344.895h-11.808v46.752h11.808V344.895z M405.573,364.768
		c0-1.152,0.192-2.209,0.384-3.072c1.248-5.186,5.664-8.641,10.464-8.641c7.872,0,11.808,6.721,11.808,14.977
		c0,9.504-4.512,15.359-11.904,15.359c-5.088,0-9.216-3.455-10.464-8.256c-0.192-0.863-0.288-1.824-0.288-2.783V364.768z
		 M393.765,378.59c0,4.705-0.192,9.889-0.384,13.057h10.08l0.576-7.008h0.192c3.36,5.76,8.736,8.064,14.784,8.064
		c10.56,0,21.216-8.352,21.216-25.152c0.096-14.209-8.064-23.713-19.488-23.713c-7.008,0-12.096,2.977-14.976,7.488h-0.192v-27.936
		h-11.808V378.59z"/>
	<path fill="#E7EAEB" d="M676.535,224.247h-32.353l-4.032,31.488c2.4-0.288,4.992-0.576,8.544-0.576
		c12.385,0,17.664,4.704,17.664,11.904c0,7.392-6.624,11.328-13.536,11.328c-5.664,0-11.04-1.824-13.728-3.265l-2.4,8.928
		c3.265,1.824,9.312,3.648,16.608,3.648c15.264,0,25.152-9.696,25.152-21.6c0-7.584-3.456-12.864-8.16-15.841
		c-4.128-2.783-9.696-4.031-15.168-4.031c-1.824,0-3.072,0.096-4.416,0.288l1.824-12.48h24V224.247z M606.542,286.647h11.424v-62.4
		h-9.792l-15.264,7.488l2.016,8.928l11.424-5.76h0.192V286.647z M558.754,278.678c-6.528,0-10.752-8.256-10.561-23.424
		c0-14.784,4.225-23.04,10.752-23.04c7.104,0,10.561,8.544,10.561,23.04c0,14.977-3.552,23.424-10.656,23.424H558.754z
		 M558.562,287.703c14.977,0,22.752-12.576,22.752-32.736c0-18.336-7.008-31.775-22.08-31.775c-14.592,0-22.848,12.96-22.848,32.447
		c0.096,19.009,7.776,32.064,22.08,32.064H558.562z M525.001,286.647v-9.696h-25.536v-0.192l5.376-4.704
		c10.944-10.079,18.815-18.911,18.815-29.951c0-10.177-6.72-18.912-20.543-18.912c-7.873,0-14.688,2.784-19.201,6.432l3.457,8.353
		c3.168-2.4,7.775-5.185,13.344-5.185c8.16,0,11.136,4.896,11.136,10.561c-0.096,8.256-7.008,15.743-21.696,29.279l-7.392,6.912
		v7.104H525.001z M461.699,287.703c4.416,0,7.295-3.264,7.295-7.584c0-4.512-2.976-7.584-7.295-7.584
		c-4.225,0-7.297,3.168-7.297,7.584c0,4.32,2.977,7.584,7.2,7.584H461.699z M422.867,232.023c7.584,0,10.848,7.199,10.752,15.647
		c0,1.632-0.288,2.592-0.672,3.36c-1.824,2.88-5.28,5.184-10.08,5.184c-6.528,0-10.272-4.992-10.272-11.424
		c0-7.488,4.224-12.768,10.176-12.768H422.867z M406.355,287.51c1.824,0.097,4.416,0.097,7.104-0.191
		c8.448-0.576,15.936-3.456,21.408-8.544c6.528-6.145,10.848-15.648,10.848-28.992c0-15.168-7.776-26.592-22.272-26.592
		c-13.344,0-22.56,10.368-22.56,22.271c0,11.521,8.064,19.296,18.912,19.296c5.952,0,10.464-2.016,13.632-5.472h0.192
		c-1.152,5.952-3.936,10.656-8.064,13.92c-3.36,2.784-7.968,4.416-12.672,4.8c-2.784,0.288-4.608,0.385-6.528,0.192V287.51z
		 M367.581,278.678c-6.528,0-10.752-8.256-10.56-23.424c0-14.784,4.224-23.04,10.752-23.04c7.104,0,10.56,8.544,10.56,23.04
		c0,14.977-3.552,23.424-10.656,23.424H367.581z M367.389,287.703c14.976,0,22.752-12.576,22.752-32.736
		c0-18.336-7.008-31.775-22.08-31.775c-14.592,0-22.848,12.96-22.848,32.447c0.096,19.009,7.776,32.064,22.08,32.064H367.389z
		 M327.79,287.703c4.416,0,7.296-3.264,7.296-7.584c0-4.512-2.976-7.584-7.296-7.584c-4.224,0-7.296,3.168-7.296,7.584
		c0,4.32,2.976,7.584,7.2,7.584H327.79z M276.075,224.247v9.696h29.472v0.191l-26.304,52.513h12.48l26.304-54.912v-7.488H276.075z
		 M264.959,286.647v-9.696h-25.536v-0.192l5.376-4.704c10.944-10.079,18.816-18.911,18.816-29.951
		c0-10.177-6.72-18.912-20.544-18.912c-7.872,0-14.688,2.784-19.2,6.432l3.456,8.353c3.168-2.4,7.776-5.185,13.344-5.185
		c8.16,0,11.136,4.896,11.136,10.561c-0.096,8.256-7.008,15.743-21.696,29.279l-7.392,6.912v7.104H264.959z"/>
	<path fill="none" stroke="#E7EAEB" stroke-width="0.375" stroke-miterlimit="7.5" d="M676.535,224.247h-32.353l-4.032,31.488
		c2.4-0.288,4.992-0.576,8.544-0.576c12.385,0,17.664,4.704,17.664,11.904c0,7.392-6.624,11.328-13.536,11.328
		c-5.664,0-11.04-1.824-13.728-3.265l-2.4,8.928c3.265,1.824,9.312,3.648,16.608,3.648c15.264,0,25.152-9.696,25.152-21.6
		c0-7.584-3.456-12.864-8.16-15.841c-4.128-2.783-9.696-4.031-15.168-4.031c-1.824,0-3.072,0.096-4.416,0.288l1.824-12.48h24
		V224.247z M606.542,286.647h11.424v-62.4h-9.792l-15.264,7.488l2.016,8.928l11.424-5.76h0.192V286.647z M558.754,278.678
		c-6.528,0-10.752-8.256-10.561-23.424c0-14.784,4.225-23.04,10.752-23.04c7.104,0,10.561,8.544,10.561,23.04
		c0,14.977-3.552,23.424-10.656,23.424H558.754z M558.562,287.703c14.977,0,22.752-12.576,22.752-32.736
		c0-18.336-7.008-31.775-22.08-31.775c-14.592,0-22.848,12.96-22.848,32.447c0.096,19.009,7.776,32.064,22.08,32.064H558.562z
		 M525.001,286.647v-9.696h-25.536v-0.192l5.376-4.704c10.944-10.079,18.815-18.911,18.815-29.951
		c0-10.177-6.72-18.912-20.543-18.912c-7.873,0-14.688,2.784-19.201,6.432l3.457,8.353c3.168-2.4,7.775-5.185,13.344-5.185
		c8.16,0,11.136,4.896,11.136,10.561c-0.096,8.256-7.008,15.743-21.696,29.279l-7.392,6.912v7.104H525.001z M461.699,287.703
		c4.416,0,7.295-3.264,7.295-7.584c0-4.512-2.976-7.584-7.295-7.584c-4.225,0-7.297,3.168-7.297,7.584c0,4.32,2.977,7.584,7.2,7.584
		H461.699z M422.867,232.023c7.584,0,10.848,7.199,10.752,15.647c0,1.632-0.288,2.592-0.672,3.36
		c-1.824,2.88-5.28,5.184-10.08,5.184c-6.528,0-10.272-4.992-10.272-11.424c0-7.488,4.224-12.768,10.176-12.768H422.867z
		 M406.355,287.51c1.824,0.097,4.416,0.097,7.104-0.191c8.448-0.576,15.936-3.456,21.408-8.544
		c6.528-6.145,10.848-15.648,10.848-28.992c0-15.168-7.776-26.592-22.272-26.592c-13.344,0-22.56,10.368-22.56,22.271
		c0,11.521,8.064,19.296,18.912,19.296c5.952,0,10.464-2.016,13.632-5.472h0.192c-1.152,5.952-3.936,10.656-8.064,13.92
		c-3.36,2.784-7.968,4.416-12.672,4.8c-2.784,0.288-4.608,0.385-6.528,0.192V287.51z M367.581,278.678
		c-6.528,0-10.752-8.256-10.56-23.424c0-14.784,4.224-23.04,10.752-23.04c7.104,0,10.56,8.544,10.56,23.04
		c0,14.977-3.552,23.424-10.656,23.424H367.581z M367.389,287.703c14.976,0,22.752-12.576,22.752-32.736
		c0-18.336-7.008-31.775-22.08-31.775c-14.592,0-22.848,12.96-22.848,32.447c0.096,19.009,7.776,32.064,22.08,32.064H367.389z
		 M327.79,287.703c4.416,0,7.296-3.264,7.296-7.584c0-4.512-2.976-7.584-7.296-7.584c-4.224,0-7.296,3.168-7.296,7.584
		c0,4.32,2.976,7.584,7.2,7.584H327.79z M276.075,224.247v9.696h29.472v0.191l-26.304,52.513h12.48l26.304-54.912v-7.488H276.075z
		 M264.959,286.647v-9.696h-25.536v-0.192l5.376-4.704c10.944-10.079,18.816-18.911,18.816-29.951
		c0-10.177-6.72-18.912-20.544-18.912c-7.872,0-14.688,2.784-19.2,6.432l3.456,8.353c3.168-2.4,7.776-5.185,13.344-5.185
		c8.16,0,11.136,4.896,11.136,10.561c-0.096,8.256-7.008,15.743-21.696,29.279l-7.392,6.912v7.104H264.959z"/>
	<path fill="#E7EAEB" d="M471.366,181.647h11.521v-27.648c0-1.344,0.191-2.688,0.576-3.936c1.151-3.168,4.127-6.624,8.543-6.624
		c5.473,0,8.064,4.607,8.064,11.136v27.072h11.52v-28.032c0-1.344,0.192-2.88,0.576-3.937c1.248-3.359,4.225-6.239,8.256-6.239
		c5.664,0,8.353,4.607,8.353,12.384v25.824h11.52v-27.553c0-14.976-7.872-20.256-15.552-20.256c-3.936,0-6.912,0.96-9.6,2.784
		c-2.112,1.344-4.032,3.264-5.664,5.856h-0.192c-2.016-5.185-6.815-8.641-12.96-8.641c-7.968,0-12.191,4.32-14.4,7.968h-0.287
		l-0.576-6.911h-10.08c0.191,4.031,0.384,8.544,0.384,13.92V181.647z M434.321,174.159c-7.008,0-11.52-6.816-11.52-15.84
		c0-7.776,3.36-15.937,11.712-15.937c8.064,0,11.328,8.448,11.328,15.744c0,9.504-4.704,16.032-11.424,16.032H434.321z
		 M434.129,182.703c11.808,0,23.904-7.68,23.904-24.864c0-14.208-9.312-24-23.232-24c-14.112,0-24.192,9.408-24.192,24.769
		c0,15.071,10.272,24.096,23.424,24.096H434.129z M357.328,134.895l17.376,46.752h11.616l17.856-46.752h-12.384l-7.488,23.712
		c-1.248,4.224-2.304,7.872-3.168,11.712h-0.288c-0.864-3.84-1.824-7.584-3.168-11.712l-7.584-23.712H357.328z"/>
	<path fill="none" stroke="#E7EAEB" stroke-width="0.375" stroke-miterlimit="7.5" d="M471.366,181.647h11.521v-27.648
		c0-1.344,0.191-2.688,0.576-3.936c1.151-3.168,4.127-6.624,8.543-6.624c5.473,0,8.064,4.607,8.064,11.136v27.072h11.52v-28.032
		c0-1.344,0.192-2.88,0.576-3.937c1.248-3.359,4.225-6.239,8.256-6.239c5.664,0,8.353,4.607,8.353,12.384v25.824h11.52v-27.553
		c0-14.976-7.872-20.256-15.552-20.256c-3.936,0-6.912,0.96-9.6,2.784c-2.112,1.344-4.032,3.264-5.664,5.856h-0.192
		c-2.016-5.185-6.815-8.641-12.96-8.641c-7.968,0-12.191,4.32-14.4,7.968h-0.287l-0.576-6.911h-10.08
		c0.191,4.031,0.384,8.544,0.384,13.92V181.647z M434.321,174.159c-7.008,0-11.52-6.816-11.52-15.84
		c0-7.776,3.36-15.937,11.712-15.937c8.064,0,11.328,8.448,11.328,15.744c0,9.504-4.704,16.032-11.424,16.032H434.321z
		 M434.129,182.703c11.808,0,23.904-7.68,23.904-24.864c0-14.208-9.312-24-23.232-24c-14.112,0-24.192,9.408-24.192,24.769
		c0,15.071,10.272,24.096,23.424,24.096H434.129z M357.328,134.895l17.376,46.752h11.616l17.856-46.752h-12.384l-7.488,23.712
		c-1.248,4.224-2.304,7.872-3.168,11.712h-0.288c-0.864-3.84-1.824-7.584-3.168-11.712l-7.584-23.712H357.328z"/>
</g>
</svg>
