<?xml version="1.0" encoding="utf-8"?>
<!-- Generator: Adobe Illustrator 16.0.0, SVG Export Plug-In . SVG Version: 6.00 Build 0)  -->
<!DOCTYPE svg PUBLIC "-//W3C//DTD SVG 1.1//EN" "http://www.w3.org/Graphics/SVG/1.1/DTD/svg11.dtd">
<svg version="1.1" id="Layer_1" xmlns="http://www.w3.org/2000/svg" xmlns:xlink="http://www.w3.org/1999/xlink" x="0px" y="0px"
	 width="900px" height="600px" viewBox="0 0 900 600" enable-background="new 0 0 900 600" xml:space="preserve">
<rect fill="#B4975A" width="900" height="600"/>
<g>
	<path fill="#E7EAEB" d="M537,487h-25.322l4.941-4.525c11.979-11.033,18.913-19.609,18.913-30.275
		c0-8.862-5.459-19.264-20.844-19.264c-7.214,0-14.281,2.344-19.389,6.475l-0.175,0.127l3.69,8.912l0.31-0.238
		c4.552-3.447,8.857-5.125,13.163-5.125c9.429,0,10.837,6.428,10.837,10.256c-0.094,7.971-6.463,15.095-21.62,29.064L494,489.407
		V497h43V487L537,487L537,487z"/>
	<path fill="#E7EAEB" d="M510.866,377.909c-0.097-6.999-4.008-11.467-12.675-14.485c-5.878-2.181-7.965-3.452-7.965-6.247
		c0-2.895,2.387-4.692,6.229-4.692c3.931,0,7.7,1.426,9.733,2.646l0.334,0.201l2.575-8.86l-0.211-0.116
		c-3.2-1.767-7.92-2.821-12.624-2.821c-10.577,0-17.964,6.124-17.964,14.892c0,4.341,2.267,10.278,13.061,13.913
		c5.805,2.129,7.483,3.595,7.483,6.535c0,3.212-2.553,4.98-7.188,4.98c-4.11,0-9.118-1.757-11.743-3.41l-0.342-0.215l-2.571,9.256
		l0.207,0.115c3.776,2.098,9.009,3.301,14.354,3.301C503.468,392.9,510.866,387.157,510.866,377.909z"/>
	<path fill="#E7EAEB" d="M402.929,385.332c3.162,5.037,8.242,7.68,14.73,7.68c10.363,0,21.516-7.972,21.516-25.457
		c0.052-7.656-2.306-14.279-6.638-18.642c-3.494-3.518-7.8-5.378-12.909-5.378c-6.432,0-11.627,2.508-14.627,7.083V323h-1l0,0h-12
		v55.585c0,1.612,0.026,3.224,0.052,4.81c-0.074,3.262-0.206,6.291-0.325,8.258l-0.02,0.348h0.321c-0.001,0-0.001-0.02-0.002,0
		h10.08h0.005h0.271L402.929,385.332z M405,372.345v-7.584c0-1.163-0.039-2.218,0.135-3.001c1.192-4.952,5.255-8.411,10.052-8.411
		c6.991,0,11.448,5.761,11.448,14.677c0,9.289-4.476,15.06-11.634,15.06c-4.836,0-8.699-3.228-9.945-8.021
		C404.872,374.238,405,373.298,405,372.345z"/>
	<path fill="#E7EAEB" d="M458.275,338h0.097c4.012,0,6.924-2.557,6.924-6.409c-0.106-4.021-2.889-6.606-6.924-6.606
		c-4.012,0-6.924,2.655-6.924,6.556C451.448,335.323,454.383,338,458.275,338z"/>
	<path fill="#E7EAEB" d="M335.825,272.229c-4.402,0-7.596,3.315-7.596,7.884c0,4.289,2.78,7.473,6.716,7.847
		c0.256,0.027,0.517,0.041,0.784,0.041h0.096c0.278,0,0.549-0.014,0.814-0.04c4.033-0.37,6.782-3.492,6.782-7.847
		C343.42,275.471,340.297,272.229,335.825,272.229z"/>
	<path fill="#E7EAEB" d="M372.721,288c0.001,0,0.002,0,0.003,0c0.239,0,0.483-0.032,0.726-0.012
		c0.614,0.052,1.237,0.012,1.878,0.012h0.096c0.867,0,1.708-0.047,2.526-0.132c0.051-0.005,0.104-0.007,0.155-0.013
		c0.172-0.019,0.338-0.046,0.507-0.069c12.671-1.656,19.864-13.407,19.864-32.826c0-20.085-8.366-32.076-22.379-32.076
		c-14.278,0-23.148,12.625-23.148,32.826C353.044,274.676,360.378,286,372.721,288z M365.355,255.249
		c0-14.239,3.908-22.74,10.452-22.74c4.681,0,10.26,3.759,10.26,22.554c0,15.128-3.582,22.938-10.356,22.938h-0.096
		c-1.93,0-3.649-0.564-5.11-2.044C367.058,272.465,365.229,265.232,365.355,255.249z M375.616,279h0.096
		c0.891,0,1.729-0.142,2.515-0.393c-0.782,0.269-1.62,0.393-2.515,0.393H375.616c-0.511,0-1.003-0.056-1.485-0.159
		C374.612,278.937,375.106,279,375.616,279z M373.332,278.622c-0.044-0.016-0.088-0.033-0.132-0.05
		C373.244,278.588,373.287,278.607,373.332,278.622z"/>
	<polygon fill="#E7EAEB" points="407,234 436.877,234 410.477,287 410.992,287 410.962,287 423.442,287 423.471,287 423.631,287 
		450.017,231.917 450.046,224 407,224 	"/>
	<path fill="#E7EAEB" d="M304.435,253.168c6.033-3.079,9.485-8.252,9.485-14.239c0-4.193-1.709-8.033-4.812-10.915
		c-3.573-3.318-8.785-5.015-15.072-5.015h-0.096c-12.189,0-21.036,7.255-21.036,17.33c0,5.975,3.336,10.894,9.404,13.933
		c-7.598,3.436-11.612,9.044-11.612,16.264c0,8.421,7.033,17.477,22.476,17.477c13.573,0,23.052-7.786,23.052-18.928
		C316.223,261.914,311.933,256.129,304.435,253.168z M293.556,279h-0.096c-1.547,0-2.949-0.268-4.193-0.736
		c-1.253-0.502-2.368-1.239-3.283-2.188c-1.765-1.829-2.685-4.278-2.592-6.908c0-5.018,3.332-8.952,8.917-10.537
		c7.614,2.105,11.315,5.835,11.315,11.401c0,3.948-2.295,7.007-5.91,8.316C296.472,278.77,295.078,279,293.556,279z
		 M302.088,240.354c0,4.188-2.933,7.663-7.479,9.007c-4.524-1.254-9.874-3.783-9.874-9.347c0-4.056,2.698-8.015,8.724-8.015h0.096
		C299.853,232,302.088,236.419,302.088,240.354z M293.556,231h-0.096c-1.523,0-2.841,0.275-3.976,0.708
		c1.138-0.466,2.462-0.708,3.976-0.708H293.556c1.577,0,2.92,0.278,4.048,0.796C296.46,231.305,295.115,231,293.556,231z"/>
	<path fill="#E7EAEB" d="M676.881,266.097c0-6.993-2.946-12.708-8.29-16.089c-3.906-2.633-9.354-4.083-15.337-4.083
		c-1.562,0-2.771-0.097-4.061,0.07L650.922,234H675l0,0l0,0v-10l0,0l0,0h-32.954l-4.115,32.102l0.383-0.061
		c2.521-0.302,5.069-0.582,8.509-0.582c11.359,0,17.364,4.009,17.364,11.601c0,5.312-4.143,11.026-13.237,11.026
		c-5.223,0-10.587-1.623-13.586-3.229l-0.333-0.179l-2.559,9.519l0.204,0.113c3.188,1.782,9.265,3.687,16.754,3.687
		C666.177,287.997,676.881,278.787,676.881,266.097z"/>
	<path fill="#E7EAEB" d="M457.328,287.959c0.258,0.026,0.521,0.041,0.788,0.041h0.097c0.277,0,0.549-0.014,0.814-0.04
		c4.032-0.37,6.781-3.492,6.781-7.847c0-4.642-3.123-7.884-7.596-7.884c-4.402,0-7.597,3.315-7.597,7.884
		C450.616,284.4,453.395,287.584,457.328,287.959z"/>
	<polygon fill="#E7EAEB" points="240,235.344 240,287 252,287 252,287 252,287 252,224 242.042,224 226.434,231.593 
		228.586,241.113 	"/>
	<path fill="#E7EAEB" d="M370.019,432.885c-14.278,0-23.148,12.549-23.148,32.752C346.973,485.9,355.339,498,369.25,498h0.096
		c14.65,0,23.052-12.043,23.052-33.037C392.398,444.877,384.032,432.885,370.019,432.885z M369.634,488h-0.096
		c-1.93,0-3.648-0.563-5.109-2.044c-3.448-3.491-5.277-10.817-5.151-20.8c0-14.24,3.907-22.694,10.452-22.694
		c4.681,0,10.26,3.782,10.26,22.577C379.991,480.167,376.409,488,369.634,488z"/>
	<path fill="#E7EAEB" d="M327.828,482.229c-4.402,0-7.596,3.317-7.596,7.886s3.154,7.885,7.5,7.885h0.096
		c4.472,0,7.596-3.244,7.596-7.885C335.423,485.473,332.3,482.229,327.828,482.229z"/>
	<path fill="#E7EAEB" d="M570.811,432.885c-14.278,0-23.147,12.549-23.147,32.752C547.765,485.9,556.131,498,570.043,498h0.096
		c14.649,0,23.052-12.043,23.052-33.037C593.19,444.877,584.824,432.885,570.811,432.885z M570.427,488h-0.097
		c-1.93,0-3.648-0.563-5.109-2.044c-3.447-3.491-5.276-10.817-5.15-20.8c0-14.24,3.907-22.694,10.452-22.694
		c4.681,0,10.26,3.782,10.26,22.577C580.782,480.167,577.201,488,570.427,488z"/>
	<path fill="#E7EAEB" d="M680.445,460.008c-3.904-2.633-9.351-4.083-15.335-4.083c-1.558,0-2.767-0.113-4.062,0.055L662.772,444H687
		l0,0l0,0v-10h-33.099l-4.114,32.102l0.382-0.061c2.524-0.302,5.074-0.58,8.51-0.58c11.359,0,17.363,4.009,17.363,11.6
		c0,5.312-4.143,11.026-13.236,11.026c-5.22,0-10.585-1.622-13.586-3.229l-0.333-0.179l-2.559,9.518l0.204,0.114
		c3.188,1.782,9.263,3.687,16.754,3.687c14.748,0,25.452-9.21,25.452-21.9C688.738,469.105,685.791,463.391,680.445,460.008z"/>
	<path fill="#E7EAEB" d="M292.144,463.084c7.141-2.718,11.062-7.893,11.062-14.635c0-10.752-9.938-15.564-19.788-15.564
		c-7.557,0-14.546,2.437-18.12,4.852l-0.186,0.126l2.875,9.139l0.333-0.222c2.165-1.443,7.254-3.887,12.602-3.887
		c6.064,0,9.684,2.928,9.684,7.67c0,6.119-7.169,8.438-11.988,8.438c2.36,0,5.251-0.536,7.67-1.707
		c-2.32,1.206-5.159,1.707-7.67,1.707H274l0,0h-1v9h5.714c6.372,0,13.812,2.71,13.812,10.282c0,7.148-6.613,9.696-12.276,9.696
		c-5.667,0-11.509-2.266-14.054-3.792l-0.331-0.195l-2.863,9.513l0.187,0.123c3.067,2.016,9.527,4.37,17.637,4.37
		c14.707,0,24.587-7.721,24.587-19.212C305.414,470.993,300.231,464.897,292.144,463.084z"/>
	<path fill="#E7EAEB" d="M232.011,432.885c-14.278,0-23.148,12.549-23.148,32.752C208.965,485.9,217.331,498,231.243,498h0.096
		c14.65,0,23.052-12.043,23.052-33.037C254.39,444.877,246.024,432.885,232.011,432.885z M231.626,488h-0.096
		c-1.93,0-3.648-0.563-5.109-2.044c-3.448-3.491-5.277-10.817-5.15-20.8c0-14.24,3.908-22.694,10.452-22.694
		c4.681,0,10.26,3.782,10.26,22.577C241.983,480.167,238.401,488,231.626,488z"/>
	<polygon fill="#E7EAEB" points="604.209,441.593 606.418,451.112 618,445.288 618,445 617.993,445 613.139,447.396 617.993,445 
		618,445 618,496 618,496 618,497 630,497 630,434 619.817,434 	"/>
	<path fill="#E7EAEB" d="M436.386,463.168c6.033-3.078,9.484-8.253,9.484-14.239c0-4.193-1.708-8.032-4.812-10.914
		c-3.573-3.318-8.785-5.015-15.072-5.015c6.747,0,11.6,1.965,14.752,4.988c-3.206-2.922-8.061-4.988-14.752-4.988h-0.096
		c-5.266,0-9.979,1.5-13.582,3.963c3.532-2.545,8.216-4.009,13.582-4.009c-12.189,0-21.036,7.277-21.036,17.354
		c0,5.974,3.336,10.905,9.405,13.944c-7.599,3.434-11.613,9.05-11.613,16.27c0,8.421,7.033,17.479,22.476,17.479
		c13.573,0,23.052-7.782,23.052-18.925C448.174,471.913,443.883,466.13,436.386,463.168z M425.411,442h0.096
		c6.297,0,8.532,4.419,8.532,8.354c0,4.188-2.932,7.662-7.479,9.008c-4.524-1.255-9.874-3.782-9.874-9.347
		C416.687,445.959,419.384,442,425.411,442z M424.259,468.627c7.614,2.104,11.315,5.814,11.315,11.381
		c0,5.306-4.141,8.992-10.068,8.992h-0.096c-2.975,0-5.63-1.032-7.477-2.946c-1.765-1.828-2.685-4.267-2.592-6.896
		C415.342,474.141,418.674,470.212,424.259,468.627z M435.971,463.041c0.01-0.005,0.019-0.011,0.029-0.016v0.315
		c-0.01-0.003-0.02-0.008-0.029-0.012V463.041z"/>
	<path fill="#E7EAEB" d="M469.291,482.229c-4.401,0-7.596,3.317-7.596,7.886s3.154,7.885,7.5,7.885h0.096
		c4.473,0,7.597-3.244,7.597-7.885C476.888,485.473,473.764,482.229,469.291,482.229z"/>
	<polygon fill="#E7EAEB" points="464,392 465,392 465,345 452,345 452,345 452,345 452,392 464,392 	"/>
	<path fill="#E7EAEB" d="M525,287L525,287L525,287v-10h-25.179l5-4.553c11.979-11.033,18.913-19.595,18.913-30.261
		c0-14.181-11.229-19.256-20.844-19.256c-7.215,0-14.281,2.346-19.389,6.476l-0.175,0.13l3.69,8.912l0.31-0.237
		c4.551-3.447,8.856-5.125,13.163-5.125c9.429,0,10.837,6.427,10.837,10.256c-0.094,7.97-6.563,15.095-21.721,29.064l-7.606,7V287h1
		l0,0H525z M483,286v-6.333l0.786-0.811l-0.786,0.68V286L483,286z"/>
	<polygon fill="#E7EAEB" points="606,287 618,287 618,287 618,287 618,224 607.952,224 592.344,231.593 594.496,241.113 
		606,235.297 	"/>
	<path fill="#E7EAEB" d="M555.64,288c0.238,0,0.482-0.032,0.726-0.012c0.614,0.052,1.237,0.012,1.878,0.012h0.097
		c0.866,0,1.706-0.047,2.524-0.131c0.052-0.005,0.104-0.007,0.156-0.013c0.172-0.019,0.338-0.046,0.507-0.069
		c12.672-1.656,19.864-13.406,19.864-32.826c0-20.085-8.366-32.076-22.38-32.076c-14.278,0-23.148,12.625-23.148,32.826
		c0.096,18.965,7.432,30.289,19.773,32.289C555.638,288,555.639,288,555.64,288z M548.271,255.249
		c0-14.239,3.907-22.74,10.452-22.74c4.681,0,10.26,3.759,10.26,22.554c0,15.128-3.581,22.938-10.355,22.938h-0.097
		c-1.93,0-3.648-0.564-5.109-2.043C549.975,272.465,548.146,265.232,548.271,255.249z M558.531,279h0.097
		c0.895,0,1.735-0.142,2.523-0.396c-0.784,0.27-1.625,0.396-2.523,0.396H558.531c-0.512,0-1.003-0.056-1.484-0.159
		C557.527,278.937,558.022,279,558.531,279z M556.248,278.622c-0.045-0.016-0.089-0.034-0.134-0.05
		C556.159,278.587,556.203,278.607,556.248,278.622z"/>
	<path fill="#E7EAEB" d="M470,148.809V182l0,0l0,0h12v-28.007c0-0.865-0.006-1.728,0.084-2.567c0.084-0.434,0.182-0.861,0.306-1.266
		c1.078-2.964,3.681-6.427,8.054-6.427c4.935,0,7.557,3.95,7.557,10.836V182h1l0,0h11l0,0h1v-28.391
		c0-1.417-0.019-2.886,0.325-3.832c1.036-2.788,3.63-6.044,7.858-6.044c3.077,0,4.963,1.414,6.174,3.469
		c1.148,2.1,1.643,5.012,1.643,8.615V182h12l0,0l0,0v-27.911c0-19.074-12.014-20.556-15.732-20.556
		c-3.812,0-6.857,0.901-9.701,2.831c-2.134,1.357-3.941,3.253-5.495,5.636h-0.008c-2.199-5.233-7.179-8.467-13.092-8.467
		c-7.793,0-12.128,4.333-14.431,7.953L479.984,135h-10.671l0.159,0.108C469.666,139.195,470,143.431,470,148.809z"/>
	<path fill="#E7EAEB" d="M433.446,133.533c-14.649,0-24.492,10.074-24.492,25.068c0,13.081,8.092,22.565,20.086,24.156
		c0.084,0.011,0.169,0.019,0.253,0.029c0.294,0.036,0.588,0.073,0.887,0.099c0.82,0.075,1.652,0.114,2.498,0.114h0.096
		c0.685,0,1.371-0.029,2.055-0.082c11.337-0.841,22.149-8.69,22.149-25.085C456.978,143.298,447.521,133.533,433.446,133.533z
		 M433.158,142.677c5.489,0,11.028,4.85,11.028,15.518c0,9.263-4.575,15.806-11.124,15.806h-0.096
		c-6.606,0-11.22-6.464-11.22-15.613C421.746,151.174,424.734,142.677,433.158,142.677z"/>
	<path fill="#E7EAEB" d="M373.328,182h0.022h11.616h0.022h0.184l18.085-47h-13.04l-7.556,23.722
		c-1.196,4.048-2.188,7.368-3.024,10.975c-0.95-4.152-1.891-7.442-3.027-10.93L368.961,135h-13.419l17.599,47H373.328z"/>
</g>
<path fill="#E7EAEB" d="M576.03,50.824h6.12v-2.04h-6.12V50.824z M550.375,58v-5.784c0-2.664-0.048-4.8-0.168-6.888l0.096-0.024
	c0.792,1.824,1.849,3.792,2.88,5.568L557.407,58h3.071V41.824h-2.735v5.64c0,2.472,0.048,4.56,0.264,6.696l-0.048,0.024
	c-0.744-1.752-1.704-3.624-2.76-5.424l-4.176-6.936h-3.385V58H550.375z M540.137,48.424h-6.096v-4.176h6.456v-2.424h-9.408V58h9.769
	v-2.424h-6.816v-4.752h6.096V48.424z M520.584,58h2.952V41.824h-2.952V58z M505.575,44.08c0.288-0.072,0.888-0.144,1.824-0.144
	c1.92,0,3.144,0.84,3.144,2.592c0,1.608-1.224,2.664-3.216,2.664h-1.752V44.08z M502.647,58h2.928v-6.648h1.487
	c1.681,0.048,2.425,0.72,2.904,2.832c0.433,2.016,0.84,3.336,1.08,3.816h3.024c-0.312-0.624-0.744-2.496-1.272-4.512
	c-0.384-1.56-1.08-2.688-2.256-3.12v-0.072c1.536-0.528,2.952-1.944,2.952-4.032c0-1.392-0.504-2.52-1.392-3.264
	c-1.104-0.912-2.664-1.296-4.992-1.296c-1.704,0-3.336,0.144-4.464,0.36V58z M495.133,48.424h-6.096v-4.176h6.456v-2.424h-9.408V58
	h9.768v-2.424h-6.815v-4.752h6.096V48.424z M470.234,58h2.951v-6.888h5.952v-2.4h-5.952v-4.464h6.408v-2.424h-9.359V58z
	 M452.985,57.232c0.888,0.528,2.664,1.008,4.392,1.008c4.152,0,6.12-2.232,6.12-4.848c0-2.304-1.344-3.72-4.152-4.8
	c-2.16-0.816-3.096-1.392-3.096-2.64c0-0.96,0.792-1.944,2.664-1.944c1.512,0,2.64,0.456,3.24,0.768l0.695-2.4
	c-0.84-0.408-2.111-0.792-3.863-0.792c-3.528,0-5.736,1.992-5.736,4.656c0,2.304,1.704,3.744,4.392,4.68
	c2.04,0.744,2.856,1.464,2.856,2.688c0,1.32-1.056,2.208-2.928,2.208c-1.513,0-2.977-0.48-3.912-1.032L452.985,57.232z
	 M438.9,50.584h1.464c2.04,0,3.696,0.768,3.696,2.64c0,2.016-1.704,2.712-3.6,2.712c-0.672,0-1.176,0-1.56-0.072V50.584z
	 M438.9,44.008c0.312-0.072,0.816-0.12,1.68-0.12c1.872,0,3.024,0.696,3.024,2.232c0,1.368-1.128,2.328-3.192,2.328H438.9V44.008z
	 M435.972,57.952c0.768,0.096,1.992,0.216,3.624,0.216c2.976,0,4.872-0.504,6.024-1.512c0.912-0.768,1.536-1.896,1.536-3.336
	c0-2.208-1.56-3.552-3.264-3.984v-0.072c1.752-0.648,2.688-1.992,2.688-3.48c0-1.392-0.672-2.448-1.68-3.048
	c-1.08-0.744-2.448-1.032-4.608-1.032c-1.68,0-3.384,0.168-4.32,0.36V57.952z M428.458,48.424h-6.096v-4.176h6.456v-2.424h-9.408V58
	h9.768v-2.424h-6.816v-4.752h6.096V48.424z M408.906,58h2.952V41.824h-2.952V58z M393.897,44.08
	c0.288-0.072,0.888-0.144,1.824-0.144c1.92,0,3.144,0.84,3.144,2.592c0,1.608-1.224,2.664-3.216,2.664h-1.752V44.08z M390.969,58
	h2.928v-6.648h1.488c1.68,0.048,2.424,0.72,2.904,2.832c0.432,2.016,0.84,3.336,1.08,3.816h3.024
	c-0.312-0.624-0.744-2.496-1.272-4.512c-0.384-1.56-1.08-2.688-2.256-3.12v-0.072c1.536-0.528,2.952-1.944,2.952-4.032
	c0-1.392-0.504-2.52-1.392-3.264c-1.104-0.912-2.664-1.296-4.992-1.296c-1.704,0-3.336,0.144-4.464,0.36V58z M377.34,58h2.952
	V44.296h4.656v-2.472h-12.216v2.472h4.608V58z M366.571,48.424h-6.096v-4.176h6.456v-2.424h-9.408V58h9.768v-2.424h-6.816v-4.752
	h6.096V48.424z M342.449,50.584h1.464c2.04,0,3.696,0.768,3.696,2.64c0,2.016-1.704,2.712-3.6,2.712c-0.672,0-1.176,0-1.56-0.072
	V50.584z M342.449,44.008c0.312-0.072,0.816-0.12,1.68-0.12c1.872,0,3.024,0.696,3.024,2.232c0,1.368-1.128,2.328-3.192,2.328
	h-1.512V44.008z M339.521,57.952c0.768,0.096,1.992,0.216,3.624,0.216c2.976,0,4.872-0.504,6.024-1.512
	c0.912-0.768,1.536-1.896,1.536-3.336c0-2.208-1.56-3.552-3.264-3.984v-0.072c1.752-0.648,2.688-1.992,2.688-3.48
	c0-1.392-0.672-2.448-1.68-3.048c-1.08-0.744-2.448-1.032-4.608-1.032c-1.68,0-3.384,0.168-4.32,0.36V57.952z M317.85,50.824h6.12
	v-2.04h-6.12V50.824z"/>
</svg>
