<?xml version="1.0" encoding="utf-8"?>
<!-- Generator: Adobe Illustrator 16.0.0, SVG Export Plug-In . SVG Version: 6.00 Build 0)  -->
<!DOCTYPE svg PUBLIC "-//W3C//DTD SVG 1.1//EN" "http://www.w3.org/Graphics/SVG/1.1/DTD/svg11.dtd">
<svg version="1.1" id="Layer_1" xmlns="http://www.w3.org/2000/svg" xmlns:xlink="http://www.w3.org/1999/xlink" x="0px" y="0px"
	 width="300px" height="194px" viewBox="0 0 300 194" enable-background="new 0 0 300 194" xml:space="preserve">
<g>
	<g>
		<g>
			<rect x="109.894" y="49.353" fill="#B4975A" width="3.854" height="10.477"/>
			<rect x="116.048" y="49.353" fill="#B4975A" width="3.854" height="10.477"/>
		</g>
		<g>
			<rect x="189.272" y="49.367" fill="#B4975A" width="4.444" height="30.996"/>
			<path fill="#B4975A" d="M126.979,62.266H98.285V49.367h-4.452v12.898H74.768V49.367h-4.451v12.898H52.941v4.47h17.375v13.628
				h4.451V66.735h19.065v13.628h4.452V66.735h24.941c0.195,0,0.357,0.159,0.357,0.357v1.491c0,0.195-0.162,0.355-0.357,0.355
				h-20.421c-0.588,0-1.07,0.481-1.07,1.072v9.281c0,0.588,0.482,1.07,1.07,1.07h25.245V63.338
				C128.051,62.75,127.567,62.266,126.979,62.266 M123.584,75.542c0,0.193-0.162,0.354-0.357,0.354H106.56
				c-0.196,0-0.356-0.161-0.356-0.354v-1.778c0-0.197,0.16-0.358,0.356-0.358h16.667c0.195,0,0.357,0.161,0.357,0.358V75.542z"/>
			<path fill="#B4975A" d="M135.379,62.197h-4.454v17.108c0,0.591,0.484,1.071,1.072,1.071h24.663c0.586,0,1.066-0.48,1.066-1.071
				V62.197h-4.452v13.37c0,0.196-0.159,0.357-0.356,0.357h-17.183c-0.194,0-0.356-0.161-0.356-0.357V62.197z"/>
			<path fill="#B4975A" d="M160.491,80.396h24.95c0.587,0,1.071-0.482,1.071-1.072v-9.166c0-0.591-0.484-1.071-1.071-1.071h-20.143
				c-0.193,0-0.356-0.161-0.356-0.356v-1.591c0-0.194,0.163-0.355,0.356-0.355h21.214v-4.455h-24.949
				c-0.59,0-1.072,0.482-1.072,1.071v9.067c0,0.591,0.482,1.073,1.072,1.073h20.139c0.196,0,0.355,0.158,0.355,0.356v1.688
				c0,0.195-0.159,0.357-0.355,0.357h-21.211V80.396z"/>
			<path fill="#B4975A" d="M222.454,73.142v-9.782c0-0.591-0.481-1.07-1.071-1.07h-23.779c-0.59,0-1.071,0.479-1.071,1.07v15.97
				c0,0.59,0.481,1.072,1.071,1.072h24.851v-4.454h-21.111c-0.195,0-0.357-0.161-0.357-0.356v-2.092
				c0-0.197,0.162-0.357,0.357-0.357H222.454 M217.646,66.741c0.194,0,0.355,0.161,0.355,0.357v1.632
				c0,0.197-0.161,0.359-0.355,0.359h-16.303c-0.195,0-0.357-0.162-0.357-0.359v-1.632c0-0.196,0.162-0.357,0.357-0.357H217.646z"/>
			<path fill="#B4975A" d="M225.207,80.363h4.455V67.159c0-0.196,0.159-0.356,0.355-0.356h17.042v-4.454h-20.781
				c-0.59,0-1.071,0.48-1.071,1.069V80.363z"/>
		</g>
	</g>
	<g>
		<path fill="#B4975A" d="M52.421,131.533c-0.055-1.023-0.12-2.252-0.109-3.167h-0.032c-0.251,0.859-0.555,1.773-0.926,2.786
			l-1.295,3.56H49.34l-1.187-3.494c-0.35-1.034-0.643-1.981-0.849-2.852h-0.022c-0.021,0.915-0.076,2.144-0.142,3.243l-0.196,3.146
			h-0.903l0.513-7.338h1.208l1.251,3.549c0.306,0.904,0.556,1.71,0.741,2.472h0.032c0.185-0.74,0.446-1.547,0.773-2.472l1.306-3.549
			h1.209l0.457,7.338h-0.925L52.421,131.533z"/>
		<path fill="#B4975A" d="M58.363,134.756l-0.075-0.664h-0.033c-0.294,0.414-0.86,0.783-1.611,0.783c-1.067,0-1.61-0.75-1.61-1.513
			c0-1.274,1.132-1.972,3.167-1.961v-0.107c0-0.436-0.12-1.219-1.197-1.219c-0.49,0-1.002,0.152-1.371,0.391l-0.219-0.631
			c0.436-0.282,1.066-0.468,1.731-0.468c1.611,0,2.003,1.099,2.003,2.155v1.97c0,0.457,0.021,0.904,0.088,1.264H58.363z
			 M58.223,132.067c-1.046-0.021-2.232,0.162-2.232,1.186c0,0.621,0.414,0.916,0.904,0.916c0.686,0,1.121-0.438,1.273-0.884
			c0.032-0.097,0.055-0.206,0.055-0.304V132.067z"/>
		<path fill="#B4975A" d="M61.111,131.131c0-0.621-0.011-1.154-0.043-1.645h0.838l0.033,1.034h0.044
			c0.239-0.708,0.815-1.153,1.458-1.153c0.109,0,0.186,0.011,0.272,0.032v0.903c-0.098-0.022-0.196-0.033-0.326-0.033
			c-0.676,0-1.154,0.512-1.285,1.231c-0.022,0.13-0.044,0.282-0.044,0.445v2.81h-0.947V131.131z"/>
		<path fill="#B4975A" d="M66.076,131.902h0.021c0.13-0.184,0.314-0.413,0.469-0.598l1.545-1.818h1.154l-2.036,2.166l2.319,3.104
			h-1.165l-1.817-2.526l-0.49,0.545v1.981h-0.947v-7.73h0.947V131.902z"/>
		<path fill="#B4975A" d="M72.129,127.973v1.514H73.5v0.73h-1.371v2.84c0,0.653,0.186,1.024,0.719,1.024
			c0.25,0,0.435-0.033,0.556-0.066l0.043,0.719c-0.186,0.077-0.479,0.131-0.85,0.131c-0.446,0-0.805-0.142-1.033-0.402
			c-0.272-0.284-0.371-0.752-0.371-1.372v-2.873h-0.815v-0.73h0.815v-1.263L72.129,127.973z"/>
		<path fill="#B4975A" d="M75,131.207c0-0.676-0.022-1.22-0.043-1.721h0.859l0.044,0.904h0.021c0.392-0.642,1.013-1.023,1.872-1.023
			c1.274,0,2.232,1.077,2.232,2.679c0,1.894-1.154,2.829-2.396,2.829c-0.696,0-1.307-0.305-1.622-0.827h-0.022v2.863H75V131.207z
			 M75.946,132.61c0,0.143,0.022,0.272,0.044,0.394c0.174,0.664,0.752,1.121,1.438,1.121c1.013,0,1.601-0.828,1.601-2.037
			c0-1.056-0.557-1.959-1.567-1.959c-0.653,0-1.264,0.468-1.448,1.187c-0.033,0.119-0.066,0.262-0.066,0.393V132.61z"/>
		<path fill="#B4975A" d="M81.683,127.025h0.958v7.73h-0.958V127.025z"/>
		<path fill="#B4975A" d="M87.584,134.756l-0.075-0.664h-0.032c-0.295,0.414-0.861,0.783-1.612,0.783c-1.067,0-1.61-0.75-1.61-1.513
			c0-1.274,1.132-1.972,3.167-1.961v-0.107c0-0.436-0.12-1.219-1.197-1.219c-0.49,0-1.002,0.152-1.371,0.391l-0.219-0.631
			c0.436-0.282,1.067-0.468,1.731-0.468c1.612,0,2.003,1.099,2.003,2.155v1.97c0,0.457,0.022,0.904,0.088,1.264H87.584z
			 M87.443,132.067c-1.046-0.021-2.232,0.162-2.232,1.186c0,0.621,0.414,0.916,0.904,0.916c0.686,0,1.121-0.438,1.273-0.884
			c0.032-0.097,0.055-0.206,0.055-0.304V132.067z"/>
		<path fill="#B4975A" d="M91.445,127.973v1.514h1.371v0.73h-1.371v2.84c0,0.653,0.186,1.024,0.718,1.024
			c0.251,0,0.436-0.033,0.556-0.066l0.044,0.719c-0.186,0.077-0.479,0.131-0.85,0.131c-0.446,0-0.805-0.142-1.033-0.402
			c-0.272-0.284-0.371-0.752-0.371-1.372v-2.873h-0.816v-0.73h0.816v-1.263L91.445,127.973z"/>
		<path fill="#B4975A" d="M93.953,134.199l2.385-3.102c0.229-0.283,0.446-0.533,0.686-0.817v-0.021h-2.853v-0.772h4.018
			l-0.012,0.599l-2.351,3.06c-0.219,0.294-0.436,0.556-0.676,0.827v0.021h3.08v0.763h-4.277V134.199z"/>
		<path fill="#B4975A" d="M104.061,128.573h-0.021l-1.229,0.663l-0.187-0.729l1.547-0.827h0.815v7.076h-0.926V128.573z"/>
		<path fill="#B4975A" d="M112.929,131.391v0.926h-2.776v-0.926H112.929z"/>
		<path fill="#B4975A" d="M116.94,133.656c0.271,0.175,0.903,0.446,1.567,0.446c1.23,0,1.61-0.784,1.6-1.372
			c-0.011-0.991-0.903-1.415-1.828-1.415h-0.534v-0.719h0.534c0.696,0,1.577-0.36,1.577-1.197c0-0.566-0.358-1.067-1.241-1.067
			c-0.564,0-1.109,0.251-1.414,0.469l-0.25-0.698c0.369-0.271,1.088-0.543,1.851-0.543c1.394,0,2.024,0.828,2.024,1.687
			c0,0.73-0.436,1.351-1.306,1.668v0.02c0.87,0.175,1.578,0.828,1.578,1.819c0,1.132-0.882,2.122-2.58,2.122
			c-0.796,0-1.492-0.249-1.84-0.479L116.94,133.656z"/>
		<path fill="#B4975A" d="M122.429,134.756v-0.587l0.75-0.73c1.809-1.72,2.624-2.635,2.635-3.701c0-0.72-0.348-1.384-1.403-1.384
			c-0.643,0-1.177,0.327-1.502,0.6l-0.306-0.674c0.49-0.414,1.187-0.72,2.003-0.72c1.524,0,2.167,1.044,2.167,2.058
			c0,1.306-0.948,2.362-2.439,3.8l-0.565,0.522v0.021h3.179v0.795H122.429z"/>
		<path fill="#B4975A" d="M132.643,128.484h-2.699l-0.272,1.818c0.164-0.022,0.316-0.044,0.577-0.044
			c0.544,0,1.089,0.121,1.523,0.382c0.556,0.315,1.014,0.926,1.014,1.818c0,1.383-1.1,2.416-2.635,2.416
			c-0.772,0-1.427-0.218-1.764-0.436l0.239-0.729c0.294,0.175,0.871,0.393,1.513,0.393c0.904,0,1.677-0.588,1.677-1.536
			c-0.011-0.914-0.62-1.566-2.035-1.566c-0.402,0-0.719,0.044-0.98,0.077l0.458-3.397h3.385V128.484z"/>
		<path fill="#B4975A" d="M139.046,131.142c0,2.405-0.893,3.733-2.462,3.733c-1.382,0-2.318-1.295-2.339-3.637
			c0-2.371,1.022-3.679,2.46-3.679C138.196,127.56,139.046,128.889,139.046,131.142z M135.202,131.25
			c0,1.84,0.566,2.886,1.438,2.886c0.979,0,1.447-1.144,1.447-2.951c0-1.742-0.445-2.885-1.437-2.885
			C135.812,128.3,135.202,129.324,135.202,131.25z"/>
		<path fill="#B4975A" d="M143.559,127.418h0.947v6.543h3.135v0.795h-4.082V127.418z"/>
		<path fill="#B4975A" d="M148.944,129.486l1.153,3.113c0.121,0.349,0.251,0.763,0.338,1.079h0.022
			c0.098-0.316,0.207-0.719,0.337-1.101l1.046-3.092h1.012l-1.436,3.756c-0.686,1.808-1.154,2.733-1.809,3.298
			c-0.469,0.415-0.936,0.578-1.175,0.621l-0.24-0.806c0.24-0.076,0.555-0.228,0.839-0.468c0.261-0.207,0.587-0.576,0.805-1.066
			c0.044-0.099,0.077-0.175,0.077-0.229c0-0.056-0.022-0.131-0.066-0.25l-1.948-4.856H148.944z"/>
		<path fill="#B4975A" d="M154.032,133.775c0.281,0.186,0.782,0.382,1.262,0.382c0.698,0,1.023-0.349,1.023-0.784
			c0-0.457-0.271-0.707-0.979-0.97c-0.946-0.336-1.393-0.858-1.393-1.489c0-0.851,0.685-1.547,1.818-1.547
			c0.532,0,0.999,0.151,1.293,0.326l-0.238,0.697c-0.207-0.132-0.588-0.306-1.076-0.306c-0.567,0-0.884,0.328-0.884,0.719
			c0,0.435,0.316,0.631,1.002,0.893c0.914,0.35,1.382,0.807,1.382,1.589c0,0.926-0.718,1.579-1.971,1.579
			c-0.575,0-1.108-0.142-1.48-0.358L154.032,133.775z"/>
		<path fill="#B4975A" d="M158.732,133.775c0.285,0.186,0.785,0.382,1.266,0.382c0.694,0,1.021-0.349,1.021-0.784
			c0-0.457-0.272-0.707-0.978-0.97c-0.948-0.336-1.394-0.858-1.394-1.489c0-0.851,0.687-1.547,1.817-1.547
			c0.531,0,1.001,0.151,1.296,0.326l-0.241,0.697c-0.207-0.132-0.586-0.306-1.077-0.306c-0.566,0-0.881,0.328-0.881,0.719
			c0,0.435,0.314,0.631,1,0.893c0.914,0.35,1.384,0.807,1.384,1.589c0,0.926-0.72,1.579-1.97,1.579c-0.579,0-1.112-0.142-1.48-0.358
			L158.732,133.775z"/>
		<path fill="#B4975A" d="M168.45,131.391v0.926h-2.776v-0.926H168.45z"/>
		<path fill="#B4975A" d="M173.744,128.224h-2.232v-0.806h5.434v0.806h-2.243v6.532h-0.958V128.224z"/>
		<path fill="#B4975A" d="M178.039,132.296c0.021,1.295,0.849,1.829,1.807,1.829c0.687,0,1.099-0.12,1.459-0.272l0.163,0.685
			c-0.338,0.152-0.914,0.327-1.753,0.327c-1.622,0-2.59-1.066-2.59-2.655c0-1.59,0.936-2.842,2.47-2.842
			c1.72,0,2.177,1.514,2.177,2.482c0,0.196-0.021,0.348-0.031,0.446H178.039z M180.848,131.609c0.01-0.609-0.251-1.557-1.328-1.557
			c-0.97,0-1.393,0.892-1.471,1.557H180.848z"/>
		<path fill="#B4975A" d="M183.442,127.025h0.958v7.73h-0.958V127.025z"/>
		<path fill="#B4975A" d="M193.921,131.142c0,2.405-0.895,3.733-2.461,3.733c-1.384,0-2.319-1.295-2.342-3.637
			c0-2.371,1.024-3.679,2.461-3.679C193.07,127.56,193.921,128.889,193.921,131.142z M190.076,131.25
			c0,1.84,0.567,2.886,1.438,2.886c0.979,0,1.449-1.144,1.449-2.951c0-1.742-0.447-2.885-1.437-2.885
			C190.688,128.3,190.076,129.324,190.076,131.25z"/>
		<path fill="#B4975A" d="M195.311,133.656c0.271,0.175,0.903,0.446,1.567,0.446c1.231,0,1.61-0.784,1.601-1.372
			c-0.013-0.991-0.904-1.415-1.828-1.415h-0.535v-0.719h0.535c0.694,0,1.578-0.36,1.578-1.197c0-0.566-0.36-1.067-1.24-1.067
			c-0.567,0-1.112,0.251-1.416,0.469l-0.25-0.698c0.369-0.271,1.087-0.543,1.85-0.543c1.395,0,2.024,0.828,2.024,1.687
			c0,0.73-0.436,1.351-1.306,1.668v0.02c0.87,0.175,1.577,0.828,1.577,1.819c0,1.132-0.88,2.122-2.579,2.122
			c-0.793,0-1.491-0.249-1.84-0.479L195.311,133.656z"/>
		<path fill="#B4975A" d="M200.798,134.756v-0.587l0.752-0.73c1.808-1.72,2.624-2.635,2.634-3.701c0-0.72-0.348-1.384-1.403-1.384
			c-0.643,0-1.178,0.327-1.502,0.6l-0.305-0.674c0.488-0.414,1.187-0.72,2.003-0.72c1.523,0,2.165,1.044,2.165,2.058
			c0,1.306-0.945,2.362-2.437,3.8l-0.567,0.522v0.021h3.179v0.795H200.798z"/>
		<path fill="#B4975A" d="M209.689,133.656c0.272,0.175,0.902,0.446,1.566,0.446c1.229,0,1.611-0.784,1.6-1.372
			c-0.01-0.991-0.902-1.415-1.829-1.415h-0.531v-0.719h0.531c0.698,0,1.579-0.36,1.579-1.197c0-0.566-0.357-1.067-1.241-1.067
			c-0.565,0-1.11,0.251-1.415,0.469l-0.251-0.698c0.37-0.271,1.091-0.543,1.852-0.543c1.394,0,2.025,0.828,2.025,1.687
			c0,0.73-0.435,1.351-1.306,1.668v0.02c0.871,0.175,1.578,0.828,1.578,1.819c0,1.132-0.883,2.122-2.58,2.122
			c-0.795,0-1.491-0.249-1.841-0.479L209.689,133.656z"/>
		<path fill="#B4975A" d="M215.326,132.96c0-0.893,0.535-1.525,1.405-1.895l-0.012-0.033c-0.783-0.369-1.121-0.979-1.121-1.59
			c0-1.12,0.949-1.883,2.188-1.883c1.372,0,2.058,0.86,2.058,1.742c0,0.599-0.294,1.241-1.165,1.654v0.032
			c0.883,0.35,1.428,0.97,1.428,1.829c0,1.23-1.058,2.058-2.408,2.058C216.219,134.875,215.326,133.993,215.326,132.96z
			 M219.138,132.916c0-0.859-0.6-1.274-1.558-1.545c-0.826,0.238-1.273,0.782-1.273,1.458c-0.032,0.718,0.513,1.349,1.415,1.349
			C218.582,134.178,219.138,133.646,219.138,132.916z M216.504,129.378c0,0.707,0.531,1.088,1.35,1.307
			c0.609-0.208,1.077-0.643,1.077-1.285c0-0.566-0.338-1.153-1.197-1.153C216.938,128.246,216.504,128.769,216.504,129.378z"/>
		<path fill="#B4975A" d="M224.587,134.756v-1.927h-3.288v-0.632l3.159-4.518h1.033v4.398h0.99v0.751h-0.99v1.927H224.587z
			 M224.587,132.078v-2.362c0-0.37,0.013-0.741,0.034-1.112h-0.034c-0.217,0.414-0.392,0.721-0.586,1.046l-1.731,2.407v0.021
			H224.587z"/>
		<path fill="#B4975A" d="M231.712,128.573h-0.022l-1.229,0.663l-0.185-0.729l1.547-0.827h0.816v7.076h-0.927V128.573z"/>
		<path fill="#B4975A" d="M237.717,134.756v-1.927h-3.288v-0.632l3.156-4.518h1.033v4.398h0.992v0.751h-0.992v1.927H237.717z
			 M237.717,132.078v-2.362c0-0.37,0.009-0.741,0.031-1.112h-0.031c-0.219,0.414-0.393,0.721-0.589,1.046l-1.731,2.407v0.021
			H237.717z"/>
		<path fill="#B4975A" d="M248.007,127.68v0.631l-3.08,6.445h-0.99l3.069-6.26v-0.022h-3.461v-0.794H248.007z"/>
		<path fill="#B4975A" d="M253.958,127.68v0.631l-3.081,6.445h-0.99l3.069-6.26v-0.022h-3.463v-0.794H253.958z"/>
		<path fill="#B4975A" d="M97.554,142.561l0.696,2.678c0.153,0.588,0.295,1.132,0.394,1.677h0.031c0.12-0.534,0.294-1.1,0.468-1.666
			l0.861-2.688h0.805l0.817,2.634c0.195,0.632,0.348,1.187,0.468,1.721h0.033c0.086-0.534,0.229-1.089,0.402-1.71l0.751-2.645h0.946
			l-1.697,5.269h-0.871l-0.806-2.515c-0.185-0.588-0.339-1.11-0.469-1.731h-0.021c-0.13,0.632-0.294,1.176-0.479,1.742l-0.848,2.504
			h-0.871l-1.591-5.269H97.554z"/>
		<path fill="#B4975A" d="M106.326,142.561l0.696,2.678c0.152,0.588,0.293,1.132,0.392,1.677h0.033
			c0.119-0.534,0.295-1.1,0.468-1.666l0.86-2.688h0.806l0.816,2.634c0.196,0.632,0.349,1.187,0.468,1.721h0.033
			c0.087-0.534,0.229-1.089,0.402-1.71l0.751-2.645h0.947l-1.698,5.269h-0.87l-0.807-2.515c-0.185-0.588-0.337-1.11-0.467-1.731
			h-0.021c-0.132,0.632-0.295,1.176-0.479,1.742l-0.85,2.504h-0.871l-1.589-5.269H106.326z"/>
		<path fill="#B4975A" d="M115.098,142.561l0.697,2.678c0.153,0.588,0.294,1.132,0.393,1.677h0.031
			c0.121-0.534,0.295-1.1,0.469-1.666l0.86-2.688h0.805l0.817,2.634c0.196,0.632,0.348,1.187,0.469,1.721h0.032
			c0.087-0.534,0.229-1.089,0.402-1.71l0.752-2.645h0.945l-1.697,5.269h-0.87l-0.807-2.515c-0.185-0.588-0.338-1.11-0.468-1.731
			h-0.021c-0.131,0.632-0.295,1.176-0.479,1.742l-0.849,2.504h-0.87l-1.591-5.269H115.098z"/>
		<path fill="#B4975A" d="M122.671,147.262c0-0.401,0.272-0.685,0.653-0.685c0.38,0,0.642,0.283,0.642,0.685
			c0,0.394-0.251,0.687-0.653,0.687C122.933,147.948,122.671,147.655,122.671,147.262z"/>
		<path fill="#B4975A" d="M125.971,140.1h0.958v3.288h0.021c0.152-0.272,0.392-0.513,0.687-0.676
			c0.283-0.163,0.62-0.271,0.979-0.271c0.708,0,1.84,0.435,1.84,2.254v3.135h-0.958v-3.026c0-0.849-0.315-1.567-1.22-1.567
			c-0.62,0-1.109,0.435-1.283,0.958c-0.056,0.13-0.066,0.271-0.066,0.458v3.178h-0.958V140.1z"/>
		<path fill="#B4975A" d="M135.352,147.829l-0.077-0.664h-0.032c-0.293,0.414-0.859,0.783-1.611,0.783
			c-1.066,0-1.611-0.75-1.611-1.512c0-1.275,1.133-1.973,3.168-1.961v-0.108c0-0.435-0.119-1.219-1.196-1.219
			c-0.49,0-1.002,0.152-1.372,0.391l-0.219-0.631c0.437-0.283,1.067-0.468,1.731-0.468c1.611,0,2.003,1.099,2.003,2.155v1.971
			c0,0.457,0.021,0.903,0.088,1.263H135.352z M135.209,145.142c-1.044-0.022-2.231,0.161-2.231,1.185
			c0,0.621,0.414,0.916,0.904,0.916c0.686,0,1.12-0.438,1.274-0.883c0.031-0.098,0.053-0.207,0.053-0.305V145.142z"/>
		<path fill="#B4975A" d="M138.68,145.369c0.021,1.295,0.849,1.829,1.807,1.829c0.686,0,1.1-0.12,1.458-0.272l0.164,0.686
			c-0.338,0.151-0.914,0.327-1.753,0.327c-1.622,0-2.592-1.067-2.592-2.656c0-1.59,0.937-2.842,2.473-2.842
			c1.719,0,2.176,1.514,2.176,2.482c0,0.196-0.021,0.349-0.031,0.446H138.68z M141.487,144.684c0.011-0.61-0.25-1.558-1.328-1.558
			c-0.969,0-1.394,0.893-1.47,1.558H141.487z"/>
		<path fill="#B4975A" d="M148.463,146.393c0,0.545,0.011,1.023,0.043,1.437h-0.849l-0.054-0.86h-0.022
			c-0.25,0.426-0.807,0.979-1.742,0.979c-0.827,0-1.818-0.457-1.818-2.308v-3.08h0.958v2.917c0,1.002,0.306,1.677,1.177,1.677
			c0.642,0,1.088-0.446,1.262-0.87c0.055-0.143,0.088-0.317,0.088-0.49v-3.233h0.958V146.393z"/>
		<path fill="#B4975A" d="M150.326,146.849c0.283,0.186,0.784,0.383,1.263,0.383c0.697,0,1.023-0.35,1.023-0.785
			c0-0.457-0.273-0.707-0.979-0.969c-0.947-0.336-1.394-0.859-1.394-1.49c0-0.85,0.686-1.547,1.817-1.547
			c0.533,0,1.002,0.153,1.297,0.327l-0.24,0.696c-0.207-0.132-0.59-0.305-1.078-0.305c-0.566,0-0.881,0.327-0.881,0.718
			c0,0.436,0.314,0.631,1.001,0.894c0.914,0.349,1.383,0.806,1.383,1.589c0,0.925-0.719,1.579-1.971,1.579
			c-0.576,0-1.11-0.143-1.481-0.359L150.326,146.849z"/>
		<path fill="#B4975A" d="M155.17,140.1h0.958v7.729h-0.958V140.1z"/>
		<path fill="#B4975A" d="M158.737,145.369c0.022,1.295,0.852,1.829,1.808,1.829c0.688,0,1.101-0.12,1.459-0.272l0.165,0.686
			c-0.339,0.151-0.917,0.327-1.753,0.327c-1.622,0-2.594-1.067-2.594-2.656c0-1.59,0.938-2.842,2.475-2.842
			c1.719,0,2.176,1.514,2.176,2.482c0,0.196-0.022,0.349-0.034,0.446H158.737z M161.547,144.684c0.012-0.61-0.251-1.558-1.328-1.558
			c-0.968,0-1.395,0.893-1.469,1.558H161.547z"/>
		<path fill="#B4975A" d="M164.119,144.204c0-0.621-0.01-1.154-0.044-1.644h0.839l0.032,1.033h0.043
			c0.241-0.707,0.817-1.153,1.46-1.153c0.109,0,0.185,0.011,0.272,0.033v0.902c-0.098-0.021-0.197-0.033-0.326-0.033
			c-0.676,0-1.155,0.513-1.286,1.231c-0.021,0.13-0.044,0.283-0.044,0.446v2.809h-0.946V144.204z"/>
		<path fill="#B4975A" d="M170.284,144.53v0.708h-2.689v-0.708H170.284z"/>
		<path fill="#B4975A" d="M172.008,140.1h0.956v7.729h-0.956V140.1z"/>
		<path fill="#B4975A" d="M175.396,142.561l1.154,3.112c0.119,0.35,0.25,0.764,0.338,1.079h0.022
			c0.097-0.315,0.206-0.719,0.335-1.101l1.046-3.091h1.012l-1.438,3.756c-0.686,1.807-1.152,2.732-1.808,3.298
			c-0.466,0.415-0.936,0.578-1.174,0.621l-0.24-0.807c0.24-0.076,0.557-0.228,0.839-0.468c0.263-0.207,0.589-0.576,0.805-1.065
			c0.044-0.1,0.078-0.176,0.078-0.229c0-0.055-0.022-0.131-0.066-0.25l-1.947-4.855H175.396z"/>
		<path fill="#B4975A" d="M180.482,146.849c0.285,0.186,0.786,0.383,1.266,0.383c0.694,0,1.021-0.35,1.021-0.785
			c0-0.457-0.271-0.707-0.977-0.969c-0.949-0.336-1.395-0.859-1.395-1.49c0-0.85,0.687-1.547,1.817-1.547
			c0.532,0,1.002,0.153,1.296,0.327l-0.241,0.696c-0.207-0.132-0.586-0.305-1.077-0.305c-0.566,0-0.881,0.327-0.881,0.718
			c0,0.436,0.314,0.631,1,0.894c0.914,0.349,1.384,0.806,1.384,1.589c0,0.925-0.72,1.579-1.97,1.579
			c-0.579,0-1.111-0.143-1.48-0.359L180.482,146.849z"/>
		<path fill="#B4975A" d="M185.187,146.849c0.282,0.186,0.783,0.383,1.262,0.383c0.698,0,1.024-0.35,1.024-0.785
			c0-0.457-0.273-0.707-0.981-0.969c-0.945-0.336-1.393-0.859-1.393-1.49c0-0.85,0.686-1.547,1.819-1.547
			c0.532,0,1,0.153,1.294,0.327l-0.239,0.696c-0.206-0.132-0.588-0.305-1.077-0.305c-0.565,0-0.883,0.327-0.883,0.718
			c0,0.436,0.317,0.631,1.002,0.894c0.915,0.349,1.382,0.806,1.382,1.589c0,0.925-0.718,1.579-1.97,1.579
			c-0.577,0-1.109-0.143-1.481-0.359L185.187,146.849z"/>
		<path fill="#B4975A" d="M189.892,147.262c0-0.401,0.272-0.685,0.654-0.685c0.38,0,0.643,0.283,0.643,0.685
			c0,0.394-0.251,0.687-0.655,0.687C190.152,147.948,189.892,147.655,189.892,147.262z"/>
		<path fill="#B4975A" d="M196.73,147.633c-0.251,0.13-0.806,0.306-1.514,0.306c-1.588,0-2.623-1.078-2.623-2.689
			c0-1.622,1.111-2.798,2.83-2.798c0.567,0,1.068,0.143,1.328,0.272l-0.217,0.74c-0.228-0.132-0.588-0.251-1.111-0.251
			c-1.209,0-1.859,0.894-1.859,1.992c0,1.22,0.783,1.971,1.828,1.971c0.545,0,0.902-0.142,1.175-0.261L196.73,147.633z"/>
		<path fill="#B4975A" d="M198.245,140.1h0.956v3.288h0.021c0.153-0.272,0.395-0.513,0.686-0.676
			c0.285-0.163,0.623-0.271,0.979-0.271c0.708,0,1.841,0.435,1.841,2.254v3.135h-0.957v-3.026c0-0.849-0.316-1.567-1.219-1.567
			c-0.623,0-1.111,0.435-1.287,0.958c-0.053,0.13-0.064,0.271-0.064,0.458v3.178h-0.956V140.1z"/>
	</g>
	<g>
		<path fill="#B4975A" d="M71.36,92.254v4.966c0,1.88,0.834,2.675,1.954,2.675c1.244,0,2.041-0.821,2.041-2.675v-4.966h1.095v4.891
			c0,2.575-1.356,3.634-3.173,3.634c-1.718,0-3.012-0.983-3.012-3.584v-4.94H71.36z"/>
		<path fill="#B4975A" d="M78.627,91.806h1.095v3.759h0.025c0.175-0.312,0.448-0.585,0.784-0.771c0.323-0.187,0.71-0.312,1.12-0.312
			c0.809,0,2.103,0.498,2.103,2.576v3.583h-1.095v-3.458c0-0.972-0.36-1.793-1.394-1.793c-0.709,0-1.27,0.498-1.469,1.095
			c-0.062,0.149-0.075,0.312-0.075,0.523v3.633h-1.095V91.806z"/>
		<path fill="#B4975A" d="M85.869,96.498c0-0.71-0.013-1.319-0.051-1.88h0.958l0.038,1.183h0.05
			c0.273-0.809,0.934-1.319,1.668-1.319c0.124,0,0.211,0.013,0.311,0.037v1.033c-0.112-0.025-0.224-0.037-0.373-0.037
			c-0.771,0-1.319,0.585-1.469,1.406c-0.024,0.148-0.05,0.323-0.05,0.51v3.21h-1.082V96.498z"/>
		<path fill="#B4975A" d="M90.89,97.829c0.024,1.481,0.971,2.091,2.065,2.091c0.785,0,1.257-0.138,1.668-0.312l0.187,0.784
			c-0.386,0.174-1.046,0.373-2.004,0.373c-1.854,0-2.961-1.219-2.961-3.036c0-1.816,1.069-3.248,2.824-3.248
			c1.967,0,2.489,1.729,2.489,2.837c0,0.225-0.024,0.398-0.037,0.511H90.89z M94.101,97.045c0.013-0.697-0.287-1.779-1.519-1.779
			c-1.107,0-1.593,1.021-1.68,1.779H94.101z"/>
		<path fill="#B4975A" d="M96.911,96.249c0-0.623-0.012-1.133-0.05-1.631h0.972l0.062,0.996h0.025
			c0.298-0.573,0.995-1.133,1.991-1.133c0.834,0,2.128,0.498,2.128,2.563v3.596h-1.096v-3.472c0-0.97-0.361-1.779-1.394-1.779
			c-0.722,0-1.282,0.51-1.469,1.12c-0.05,0.138-0.075,0.324-0.075,0.511v3.62h-1.095V96.249z"/>
		<path fill="#B4975A" d="M109.598,96.796v1.058h-3.173v-1.058H109.598z"/>
		<path fill="#B4975A" d="M114.155,99.322c0.485,0.3,1.194,0.548,1.941,0.548c1.107,0,1.755-0.585,1.755-1.432
			c0-0.783-0.448-1.231-1.58-1.667c-1.369-0.485-2.216-1.195-2.216-2.377c0-1.307,1.083-2.277,2.713-2.277
			c0.859,0,1.48,0.199,1.854,0.41l-0.299,0.884c-0.273-0.149-0.833-0.397-1.593-0.397c-1.145,0-1.58,0.684-1.58,1.256
			c0,0.785,0.51,1.17,1.667,1.618c1.419,0.548,2.141,1.232,2.141,2.464c0,1.295-0.958,2.414-2.937,2.414
			c-0.809,0-1.692-0.236-2.141-0.535L114.155,99.322z"/>
		<path fill="#B4975A" d="M125.121,100.417c-0.286,0.149-0.921,0.349-1.729,0.349c-1.816,0-2.999-1.231-2.999-3.073
			c0-1.854,1.27-3.198,3.235-3.198c0.647,0,1.22,0.162,1.519,0.311l-0.249,0.847c-0.261-0.149-0.672-0.286-1.27-0.286
			c-1.381,0-2.128,1.021-2.128,2.277c0,1.394,0.896,2.252,2.091,2.252c0.622,0,1.033-0.161,1.344-0.299L125.121,100.417z"/>
		<path fill="#B4975A" d="M126.722,91.806h1.096v3.759h0.024c0.175-0.312,0.448-0.585,0.784-0.771
			c0.323-0.187,0.71-0.312,1.12-0.312c0.81,0,2.103,0.498,2.103,2.576v3.583h-1.095v-3.458c0-0.972-0.361-1.793-1.394-1.793
			c-0.709,0-1.27,0.498-1.468,1.095c-0.062,0.149-0.075,0.312-0.075,0.523v3.633h-1.096V91.806z"/>
		<path fill="#B4975A" d="M133.969,96.249c0-0.623-0.013-1.133-0.051-1.631h0.959l0.05,0.971h0.037
			c0.336-0.572,0.896-1.107,1.892-1.107c0.821,0,1.443,0.498,1.705,1.207h0.024c0.187-0.336,0.423-0.597,0.672-0.783
			c0.361-0.274,0.76-0.424,1.332-0.424c0.797,0,1.979,0.522,1.979,2.613v3.546h-1.069v-3.408c0-1.158-0.424-1.854-1.307-1.854
			c-0.623,0-1.108,0.46-1.295,0.995c-0.05,0.149-0.087,0.349-0.087,0.548v3.72h-1.07v-3.607c0-0.959-0.424-1.655-1.257-1.655
			c-0.685,0-1.183,0.547-1.356,1.095c-0.062,0.161-0.087,0.349-0.087,0.535v3.633h-1.07V96.249z"/>
		<path fill="#B4975A" d="M149.729,98.999c0,0.623,0.014,1.17,0.051,1.642h-0.972l-0.062-0.982h-0.024
			c-0.286,0.484-0.921,1.12-1.991,1.12c-0.946,0-2.078-0.523-2.078-2.638v-3.522h1.095v3.336c0,1.146,0.349,1.916,1.345,1.916
			c0.733,0,1.244-0.511,1.443-0.996c0.062-0.162,0.1-0.36,0.1-0.56v-3.696h1.095V98.999z"/>
		<path fill="#B4975A" d="M156.245,100.417c-0.286,0.149-0.92,0.349-1.73,0.349c-1.816,0-2.999-1.231-2.999-3.073
			c0-1.854,1.271-3.198,3.236-3.198c0.646,0,1.22,0.162,1.519,0.311l-0.25,0.847c-0.261-0.149-0.672-0.286-1.269-0.286
			c-1.381,0-2.128,1.021-2.128,2.277c0,1.394,0.896,2.252,2.09,2.252c0.623,0,1.034-0.161,1.345-0.299L156.245,100.417z"/>
		<path fill="#B4975A" d="M158.929,97.381h0.024c0.15-0.212,0.361-0.473,0.534-0.685l1.769-2.078h1.317l-2.325,2.477l2.65,3.546
			h-1.332l-2.079-2.887l-0.559,0.623v2.264h-1.082v-8.835h1.082V97.381z"/>
		<path fill="#B4975A" d="M169.711,96.796v1.058h-3.174v-1.058H169.711z"/>
		<path fill="#B4975A" d="M178.76,96.709h-3.26v3.024h3.635v0.907h-4.717v-8.387h4.529v0.908H175.5v2.65h3.26V96.709z"/>
		<path fill="#B4975A" d="M185.962,91.806v7.28c0,0.536,0.014,1.145,0.05,1.555h-0.982l-0.051-1.045h-0.024
			c-0.335,0.673-1.07,1.183-2.053,1.183c-1.457,0-2.576-1.231-2.576-3.062c-0.014-2.004,1.231-3.235,2.7-3.235
			c0.92,0,1.543,0.436,1.816,0.921h0.024v-3.597H185.962z M184.866,97.069c0-0.137-0.012-0.323-0.049-0.46
			c-0.163-0.696-0.76-1.27-1.581-1.27c-1.133,0-1.804,0.996-1.804,2.327c0,1.221,0.597,2.228,1.78,2.228
			c0.732,0,1.406-0.484,1.604-1.307c0.037-0.149,0.049-0.299,0.049-0.473V97.069z"/>
		<path fill="#B4975A" d="M188.794,97.829c0.025,1.481,0.972,2.091,2.066,2.091c0.783,0,1.256-0.138,1.668-0.312l0.187,0.784
			c-0.387,0.174-1.047,0.373-2.005,0.373c-1.854,0-2.96-1.219-2.96-3.036c0-1.816,1.069-3.248,2.823-3.248
			c1.967,0,2.49,1.729,2.49,2.837c0,0.225-0.026,0.398-0.038,0.511H188.794z M192.006,97.045c0.013-0.697-0.286-1.779-1.52-1.779
			c-1.106,0-1.593,1.021-1.679,1.779H192.006z"/>
		<path fill="#B4975A" d="M194.847,91.806h1.095v8.835h-1.095V91.806z"/>
		<path fill="#B4975A" d="M197.935,99.522c0.322,0.211,0.896,0.436,1.442,0.436c0.796,0,1.17-0.399,1.17-0.897
			c0-0.521-0.312-0.809-1.12-1.106c-1.084-0.387-1.593-0.983-1.593-1.705c0-0.972,0.784-1.768,2.078-1.768
			c0.61,0,1.145,0.175,1.48,0.373l-0.272,0.797c-0.238-0.149-0.673-0.349-1.232-0.349c-0.646,0-1.01,0.374-1.01,0.821
			c0,0.498,0.363,0.722,1.146,1.021c1.046,0.398,1.581,0.921,1.581,1.817c0,1.058-0.822,1.804-2.252,1.804
			c-0.661,0-1.271-0.162-1.693-0.411L197.935,99.522z"/>
		<path fill="#B4975A" d="M204.805,92.889v1.729h1.567v0.834h-1.567V98.7c0,0.746,0.212,1.17,0.821,1.17
			c0.286,0,0.497-0.036,0.635-0.075l0.049,0.821c-0.211,0.088-0.547,0.149-0.97,0.149c-0.511,0-0.922-0.162-1.182-0.461
			c-0.312-0.323-0.423-0.858-0.423-1.568v-3.284h-0.935v-0.834h0.935v-1.443L204.805,92.889z"/>
		<path fill="#B4975A" d="M208.488,97.829c0.025,1.481,0.972,2.091,2.066,2.091c0.785,0,1.256-0.138,1.667-0.312l0.188,0.784
			c-0.387,0.174-1.046,0.373-2.004,0.373c-1.853,0-2.962-1.219-2.962-3.036c0-1.816,1.07-3.248,2.826-3.248
			c1.965,0,2.487,1.729,2.487,2.837c0,0.225-0.024,0.398-0.036,0.511H208.488z M211.699,97.045c0.014-0.697-0.285-1.779-1.518-1.779
			c-1.107,0-1.593,1.021-1.68,1.779H211.699z"/>
		<path fill="#B4975A" d="M215.728,92.926c0.013,0.373-0.261,0.673-0.697,0.673c-0.386,0-0.659-0.3-0.659-0.673
			c0-0.386,0.286-0.684,0.685-0.684C215.467,92.242,215.728,92.54,215.728,92.926z M214.508,100.641v-6.022h1.095v6.022H214.508z"/>
		<path fill="#B4975A" d="M217.754,96.249c0-0.623-0.012-1.133-0.049-1.631h0.972l0.062,0.996h0.025
			c0.298-0.573,0.995-1.133,1.99-1.133c0.834,0,2.128,0.498,2.128,2.563v3.596h-1.096v-3.472c0-0.97-0.36-1.779-1.393-1.779
			c-0.724,0-1.282,0.51-1.469,1.12c-0.05,0.138-0.074,0.324-0.074,0.511v3.62h-1.097V96.249z"/>
		<path fill="#B4975A" d="M225.692,97.829c0.023,1.481,0.97,2.091,2.065,2.091c0.784,0,1.256-0.138,1.667-0.312l0.188,0.784
			c-0.387,0.174-1.046,0.373-2.004,0.373c-1.854,0-2.962-1.219-2.962-3.036c0-1.816,1.069-3.248,2.825-3.248
			c1.965,0,2.488,1.729,2.488,2.837c0,0.225-0.024,0.398-0.037,0.511H225.692z M228.902,97.045c0.013-0.697-0.286-1.779-1.518-1.779
			c-1.107,0-1.593,1.021-1.681,1.779H228.902z"/>
	</g>
</g>
</svg>
