<?xml version="1.0" encoding="utf-8"?>
<!-- Generator: Adobe Illustrator 16.0.0, SVG Export Plug-In . SVG Version: 6.00 Build 0)  -->
<!DOCTYPE svg PUBLIC "-//W3C//DTD SVG 1.1//EN" "http://www.w3.org/Graphics/SVG/1.1/DTD/svg11.dtd">
<svg version="1.1" id="Layer_1" xmlns="http://www.w3.org/2000/svg" xmlns:xlink="http://www.w3.org/1999/xlink" x="0px" y="0px"
	 width="600px" height="194px" viewBox="0 0 600 194" enable-background="new 0 0 600 194" xml:space="preserve">
<g>
	<path fill="#B4975A" d="M404.72,139.588c0.828,0,1.368-0.612,1.368-1.422c0-0.846-0.559-1.422-1.368-1.422
		c-0.792,0-1.368,0.594-1.368,1.422c0,0.81,0.559,1.422,1.35,1.422H404.72z M391.234,139.39h2.215v-5.166
		c0-0.252,0.035-0.521,0.107-0.702c0.234-0.666,0.846-1.296,1.729-1.296c1.205,0,1.674,0.954,1.674,2.214v4.95h2.214v-5.202
		c0-2.771-1.584-3.762-3.114-3.762c-1.458,0-2.412,0.828-2.809,1.512h-0.053l-0.108-1.313h-1.927
		c0.037,0.756,0.072,1.602,0.072,2.61V139.39z M381.436,134.08c0.09-0.9,0.666-2.143,2.034-2.143c1.476,0,1.836,1.332,1.817,2.143
		H381.436z M387.304,135.628c0.036-0.198,0.071-0.522,0.071-0.937c0-1.926-0.936-4.266-3.779-4.266
		c-2.809,0-4.284,2.286-4.284,4.716c0,2.683,1.675,4.429,4.519,4.429c1.26,0,2.304-0.234,3.06-0.559l-0.323-1.512
		c-0.685,0.234-1.404,0.396-2.431,0.396c-1.404,0-2.646-0.684-2.7-2.268H387.304z M373.221,135.592c0,0.234-0.018,0.45-0.072,0.648
		c-0.216,0.954-1.008,1.565-1.908,1.565c-1.403,0-2.195-1.17-2.195-2.79s0.792-2.88,2.214-2.88c1.008,0,1.71,0.702,1.907,1.548
		c0.037,0.181,0.055,0.414,0.055,0.595V135.592z M373.221,126.592v4.968h-0.036c-0.396-0.647-1.26-1.134-2.466-1.134
		c-2.105,0-3.941,1.746-3.924,4.68c0,2.7,1.656,4.482,3.762,4.482c1.26,0,2.322-0.612,2.844-1.584h0.036l0.108,1.386h1.962
		c-0.036-0.594-0.072-1.565-0.072-2.466v-10.332H373.221z M358.889,139.39h2.214v-4.554c0-0.234,0.019-0.468,0.054-0.666
		c0.198-1.008,0.937-1.674,1.98-1.674c0.27,0,0.468,0.018,0.666,0.054v-2.07c-0.18-0.035-0.307-0.054-0.521-0.054
		c-0.955,0-1.98,0.63-2.412,1.854h-0.055l-0.09-1.656h-1.908c0.055,0.773,0.072,1.638,0.072,2.826V139.39z M349.09,134.08
		c0.09-0.9,0.666-2.143,2.033-2.143c1.477,0,1.836,1.332,1.818,2.143H349.09z M354.957,135.628c0.037-0.198,0.072-0.522,0.072-0.937
		c0-1.926-0.936-4.266-3.779-4.266c-2.809,0-4.284,2.286-4.284,4.716c0,2.683,1.674,4.429,4.519,4.429
		c1.26,0,2.303-0.234,3.06-0.559l-0.324-1.512c-0.685,0.234-1.403,0.396-2.431,0.396c-1.403,0-2.646-0.684-2.699-2.268H354.957z
		 M331.252,130.624l2.592,8.766h2.07l1.115-3.563c0.252-0.864,0.469-1.729,0.666-2.809h0.037c0.197,1.062,0.396,1.891,0.665,2.809
		l1.044,3.563h2.053l2.754-8.766h-2.178l-0.973,3.888c-0.234,1.026-0.45,1.98-0.576,2.935h-0.035
		c-0.199-0.954-0.433-1.908-0.703-2.935l-1.098-3.888h-1.8l-1.151,3.996c-0.234,0.899-0.522,1.89-0.703,2.826h-0.035
		c-0.162-0.954-0.36-1.908-0.576-2.845l-0.9-3.978H331.252z M313.847,139.39h2.214v-5.166c0-0.252,0.036-0.521,0.108-0.702
		c0.233-0.666,0.846-1.296,1.728-1.296c1.206,0,1.674,0.954,1.674,2.214v4.95h2.215v-5.202c0-2.771-1.584-3.762-3.114-3.762
		c-1.458,0-2.412,0.828-2.808,1.512h-0.055l-0.107-1.313h-1.926c0.035,0.756,0.071,1.602,0.071,2.61V139.39z M304.048,134.08
		c0.09-0.9,0.666-2.143,2.034-2.143c1.476,0,1.836,1.332,1.818,2.143H304.048z M309.916,135.628
		c0.035-0.198,0.072-0.522,0.072-0.937c0-1.926-0.937-4.266-3.781-4.266c-2.807,0-4.283,2.286-4.283,4.716
		c0,2.683,1.674,4.429,4.518,4.429c1.26,0,2.305-0.234,3.061-0.559l-0.324-1.512c-0.684,0.234-1.404,0.396-2.43,0.396
		c-1.404,0-2.646-0.684-2.7-2.268H309.916z M294.054,139.39h2.214v-4.554c0-0.234,0.018-0.468,0.055-0.666
		c0.197-1.008,0.936-1.674,1.979-1.674c0.271,0,0.468,0.018,0.666,0.054v-2.07c-0.181-0.035-0.306-0.054-0.522-0.054
		c-0.953,0-1.979,0.63-2.412,1.854h-0.054l-0.09-1.656h-1.907c0.053,0.773,0.071,1.638,0.071,2.826V139.39z M281.781,139.39h2.215
		v-5.256c0-0.234,0.018-0.468,0.09-0.666c0.252-0.666,0.863-1.242,1.728-1.242c1.224,0,1.692,0.973,1.692,2.232v4.932h2.214v-5.166
		c0-2.808-1.565-3.798-3.06-3.798c-0.559,0-1.08,0.145-1.53,0.396c-0.45,0.233-0.828,0.575-1.099,0.989h-0.035v-5.22h-2.215V139.39z
		 M275.328,129.256c0.629,0,1.08-0.504,1.08-1.116c0-0.63-0.469-1.098-1.08-1.098c-0.631,0-1.116,0.486-1.116,1.098
		c0,0.612,0.468,1.116,1.079,1.116H275.328z M271.746,129.256c0.629,0,1.08-0.504,1.08-1.116c0-0.63-0.469-1.098-1.062-1.098
		c-0.648,0-1.134,0.486-1.134,1.098c0,0.612,0.468,1.116,1.098,1.116H271.746z M277.38,130.624h-2.216v5.292
		c0,0.252-0.034,0.504-0.125,0.684c-0.215,0.576-0.791,1.188-1.691,1.188c-1.17,0-1.638-0.937-1.638-2.395v-4.77h-2.214v5.147
		c0,2.862,1.457,3.816,3.041,3.816s2.449-0.9,2.826-1.512h0.053l0.109,1.313h1.926c-0.037-0.72-0.071-1.584-0.071-2.628V130.624z
		 M264.173,139.39v-7.109h1.907v-1.656h-1.926v-0.45c0-1.08,0.36-1.998,1.459-1.998c0.414,0,0.701,0.072,0.953,0.162l0.145-1.71
		c-0.342-0.108-0.811-0.216-1.404-0.216c-0.756,0-1.638,0.233-2.286,0.846c-0.756,0.72-1.062,1.854-1.062,2.988v0.378h-1.188v1.656
		h1.188v7.109H264.173z M247.254,139.39h2.214v-4.554c0-0.234,0.019-0.468,0.054-0.666c0.198-1.008,0.936-1.674,1.98-1.674
		c0.27,0,0.468,0.018,0.666,0.054v-2.07c-0.18-0.035-0.307-0.054-0.522-0.054c-0.954,0-1.979,0.63-2.411,1.854h-0.055l-0.09-1.656
		h-1.908c0.055,0.773,0.072,1.638,0.072,2.826V139.39z M237.455,134.08c0.09-0.9,0.666-2.143,2.033-2.143
		c1.477,0,1.836,1.332,1.818,2.143H237.455z M243.322,135.628c0.037-0.198,0.072-0.522,0.072-0.937c0-1.926-0.936-4.266-3.779-4.266
		c-2.809,0-4.285,2.286-4.285,4.716c0,2.683,1.675,4.429,4.519,4.429c1.261,0,2.304-0.234,3.06-0.559l-0.323-1.512
		c-0.685,0.234-1.404,0.396-2.431,0.396c-1.404,0-2.646-0.684-2.699-2.268H243.322z M228.048,128.986v1.638h-1.242v1.656h1.242
		v4.104c0,1.152,0.216,1.962,0.702,2.466c0.414,0.45,1.08,0.721,1.908,0.721c0.684,0,1.277-0.108,1.602-0.234l-0.036-1.674
		c-0.252,0.072-0.468,0.09-0.864,0.09c-0.846,0-1.134-0.54-1.134-1.62v-3.852h2.106v-1.656h-2.106v-2.25L228.048,128.986z
		 M222.212,129.364c0.756,0,1.241-0.54,1.241-1.188c-0.018-0.684-0.485-1.206-1.241-1.206c-0.738,0-1.242,0.522-1.242,1.206
		c0,0.648,0.485,1.188,1.224,1.188H222.212z M223.31,130.624h-2.214v8.766h2.214V130.624z M211.301,134.08
		c0.09-0.9,0.666-2.143,2.033-2.143c1.477,0,1.837,1.332,1.818,2.143H211.301z M217.169,135.628
		c0.036-0.198,0.071-0.522,0.071-0.937c0-1.926-0.936-4.266-3.779-4.266c-2.809,0-4.284,2.286-4.284,4.716
		c0,2.683,1.674,4.429,4.519,4.429c1.26,0,2.303-0.234,3.06-0.559l-0.324-1.512c-0.685,0.234-1.403,0.396-2.431,0.396
		c-1.403,0-2.646-0.684-2.699-2.268H217.169z M193.463,130.624l2.592,8.766h2.07l1.115-3.563c0.252-0.864,0.469-1.729,0.666-2.809
		h0.037c0.197,1.062,0.396,1.891,0.666,2.809l1.043,3.563h2.053l2.754-8.766h-2.178l-0.973,3.888
		c-0.234,1.026-0.449,1.98-0.576,2.935h-0.035c-0.199-0.954-0.433-1.908-0.703-2.935l-1.098-3.888h-1.8l-1.151,3.996
		c-0.234,0.899-0.522,1.89-0.703,2.826h-0.035c-0.162-0.954-0.36-1.908-0.576-2.845l-0.9-3.978H193.463z"/>
	<path fill="#B4975A" d="M493.305,115.39h2.214v-5.166c0-0.252,0.036-0.521,0.108-0.702c0.234-0.666,0.846-1.296,1.729-1.296
		c1.205,0,1.674,0.954,1.674,2.214v4.95h2.213v-5.202c0-2.771-1.584-3.762-3.113-3.762c-1.458,0-2.412,0.828-2.809,1.512h-0.054
		l-0.108-1.313h-1.926c0.036,0.756,0.072,1.602,0.072,2.61V115.39z M485.012,113.986c-1.314,0-2.16-1.278-2.16-2.971
		c0-1.458,0.631-2.987,2.196-2.987c1.512,0,2.124,1.584,2.124,2.951c0,1.782-0.882,3.007-2.143,3.007H485.012z M484.976,115.588
		c2.214,0,4.482-1.44,4.482-4.662c0-2.664-1.746-4.5-4.356-4.5c-2.646,0-4.535,1.764-4.535,4.645c0,2.825,1.926,4.518,4.392,4.518
		H484.976z M475.629,105.364c0.756,0,1.242-0.54,1.242-1.188c-0.018-0.684-0.486-1.206-1.242-1.206
		c-0.738,0-1.242,0.522-1.242,1.206c0,0.648,0.486,1.188,1.225,1.188H475.629z M476.727,106.624h-2.214v8.766h2.214V106.624z
		 M466.624,104.986v1.638h-1.242v1.656h1.242v4.104c0,1.152,0.216,1.962,0.702,2.466c0.414,0.45,1.08,0.721,1.908,0.721
		c0.684,0,1.277-0.108,1.602-0.234l-0.036-1.674c-0.252,0.072-0.468,0.09-0.864,0.09c-0.846,0-1.134-0.54-1.134-1.62v-3.852h2.106
		v-1.656h-2.106v-2.25L466.624,104.986z M459.845,112.312c0,0.162,0,0.324-0.054,0.486c-0.217,0.63-0.846,1.206-1.746,1.206
		c-0.702,0-1.26-0.396-1.26-1.26c0-1.332,1.494-1.656,3.06-1.639V112.312z M462.005,110.134c0-1.926-0.81-3.708-3.618-3.708
		c-1.386,0-2.52,0.378-3.168,0.774l0.432,1.439c0.594-0.378,1.494-0.647,2.358-0.647c1.548,0,1.782,0.954,1.782,1.529v0.145
		c-3.24-0.019-5.202,1.116-5.202,3.312c0,1.332,0.989,2.61,2.754,2.61c1.151,0,2.069-0.486,2.592-1.17h0.054l0.162,0.972h1.998
		c-0.107-0.54-0.144-1.313-0.144-2.105V110.134z M446.802,115.39h2.214v-4.554c0-0.234,0.018-0.468,0.055-0.666
		c0.197-1.008,0.936-1.674,1.979-1.674c0.271,0,0.468,0.018,0.666,0.054v-2.07c-0.181-0.035-0.306-0.054-0.522-0.054
		c-0.953,0-1.979,0.63-2.412,1.854h-0.053l-0.091-1.656h-1.907c0.053,0.773,0.071,1.638,0.071,2.826V115.39z M437.003,110.08
		c0.09-0.9,0.666-2.143,2.034-2.143c1.476,0,1.836,1.332,1.818,2.143H437.003z M442.871,111.628
		c0.035-0.198,0.072-0.522,0.072-0.937c0-1.926-0.937-4.266-3.781-4.266c-2.807,0-4.283,2.286-4.283,4.716
		c0,2.683,1.674,4.429,4.518,4.429c1.26,0,2.305-0.234,3.061-0.559l-0.324-1.512c-0.684,0.234-1.404,0.396-2.43,0.396
		c-1.404,0-2.646-0.684-2.7-2.268H442.871z M423.109,115.39h2.213v-5.166c0-0.252,0.037-0.521,0.108-0.702
		c0.234-0.666,0.847-1.296,1.728-1.296c1.207,0,1.675,0.954,1.675,2.214v4.95h2.214v-5.202c0-2.771-1.584-3.762-3.114-3.762
		c-1.458,0-2.411,0.828-2.808,1.512h-0.055l-0.107-1.313h-1.926c0.035,0.756,0.072,1.602,0.072,2.61V115.39z M413.31,110.08
		c0.091-0.9,0.666-2.143,2.034-2.143c1.477,0,1.836,1.332,1.818,2.143H413.31z M419.178,111.628
		c0.036-0.198,0.072-0.522,0.072-0.937c0-1.926-0.936-4.266-3.78-4.266c-2.808,0-4.284,2.286-4.284,4.716
		c0,2.683,1.674,4.429,4.518,4.429c1.261,0,2.305-0.234,3.061-0.559l-0.324-1.512c-0.684,0.234-1.404,0.396-2.43,0.396
		c-1.404,0-2.646-0.684-2.7-2.268H419.178z M407.379,108.694h-4.284v1.745h2.142v3.042c-0.287,0.126-0.862,0.234-1.672,0.234
		c-2.521,0-4.213-1.62-4.213-4.392c0-2.826,1.817-4.356,4.41-4.356c1.277,0,2.087,0.216,2.754,0.522l0.485-1.782
		c-0.558-0.271-1.728-0.576-3.222-0.576c-4.014,0-6.732,2.448-6.75,6.3c0,1.836,0.612,3.438,1.692,4.464
		c1.152,1.099,2.718,1.62,4.769,1.62c1.604,0,3.115-0.396,3.889-0.684V108.694z M379.229,115.39h2.213v-5.166
		c0-0.252,0.037-0.521,0.108-0.702c0.233-0.666,0.847-1.296,1.728-1.296c1.207,0,1.674,0.954,1.674,2.214v4.95h2.215v-5.202
		c0-2.771-1.584-3.762-3.114-3.762c-1.458,0-2.412,0.828-2.808,1.512h-0.055l-0.107-1.313h-1.926
		c0.035,0.756,0.072,1.602,0.072,2.61V115.39z M369.429,110.08c0.09-0.9,0.666-2.143,2.034-2.143c1.477,0,1.836,1.332,1.818,2.143
		H369.429z M375.297,111.628c0.036-0.198,0.072-0.522,0.072-0.937c0-1.926-0.937-4.266-3.78-4.266c-2.808,0-4.284,2.286-4.284,4.716
		c0,2.683,1.674,4.429,4.518,4.429c1.261,0,2.305-0.234,3.061-0.559l-0.324-1.512c-0.684,0.234-1.404,0.396-2.43,0.396
		c-1.404,0-2.646-0.684-2.7-2.268H375.297z M360.021,104.986v1.638h-1.242v1.656h1.242v4.104c0,1.152,0.217,1.962,0.702,2.466
		c0.414,0.45,1.08,0.721,1.908,0.721c0.685,0,1.278-0.108,1.603-0.234l-0.037-1.674c-0.252,0.072-0.467,0.09-0.863,0.09
		c-0.846,0-1.135-0.54-1.135-1.62v-3.852h2.106v-1.656h-2.106v-2.25L360.021,104.986z M350.808,115.39h2.214v-4.554
		c0-0.234,0.019-0.468,0.055-0.666c0.197-1.008,0.936-1.674,1.979-1.674c0.271,0,0.468,0.018,0.666,0.054v-2.07
		c-0.18-0.035-0.306-0.054-0.522-0.054c-0.953,0-1.979,0.63-2.412,1.854h-0.053l-0.09-1.656h-1.908
		c0.054,0.773,0.071,1.638,0.071,2.826V115.39z M341.009,110.08c0.09-0.9,0.666-2.143,2.034-2.143c1.477,0,1.836,1.332,1.818,2.143
		H341.009z M346.877,111.628c0.035-0.198,0.072-0.522,0.072-0.937c0-1.926-0.937-4.266-3.78-4.266c-2.808,0-4.284,2.286-4.284,4.716
		c0,2.683,1.674,4.429,4.518,4.429c1.26,0,2.305-0.234,3.061-0.559l-0.324-1.512c-0.684,0.234-1.404,0.396-2.43,0.396
		c-1.404,0-2.646-0.684-2.7-2.268H346.877z M333.947,105.364c0.756,0,1.242-0.54,1.242-1.188c-0.018-0.684-0.486-1.206-1.242-1.206
		c-0.737,0-1.241,0.522-1.241,1.206c0,0.648,0.485,1.188,1.224,1.188H333.947z M335.046,106.624h-2.214v8.766h2.214V106.624z
		 M320.615,106.624l3.258,8.766h2.178l3.348-8.766h-2.322l-1.403,4.446c-0.233,0.792-0.433,1.476-0.595,2.195h-0.053
		c-0.162-0.72-0.343-1.422-0.595-2.195l-1.422-4.446H320.615z M307.152,115.39h2.213v-4.554c0-0.234,0.019-0.468,0.055-0.666
		c0.197-1.008,0.936-1.674,1.98-1.674c0.27,0,0.467,0.018,0.666,0.054v-2.07c-0.181-0.035-0.307-0.054-0.522-0.054
		c-0.954,0-1.979,0.63-2.412,1.854h-0.054l-0.09-1.656h-1.908c0.054,0.773,0.072,1.638,0.072,2.826V115.39z M297.354,110.08
		c0.09-0.9,0.666-2.143,2.033-2.143c1.477,0,1.836,1.332,1.818,2.143H297.354z M303.221,111.628
		c0.036-0.198,0.072-0.522,0.072-0.937c0-1.926-0.936-4.266-3.78-4.266c-2.808,0-4.284,2.286-4.284,4.716
		c0,2.683,1.674,4.429,4.518,4.429c1.261,0,2.305-0.234,3.061-0.559l-0.324-1.512c-0.684,0.234-1.404,0.396-2.43,0.396
		c-1.404,0-2.646-0.684-2.699-2.268H303.221z M289.138,111.592c0,0.234-0.019,0.45-0.071,0.648
		c-0.217,0.954-1.009,1.565-1.908,1.565c-1.404,0-2.196-1.17-2.196-2.79s0.792-2.88,2.214-2.88c1.008,0,1.71,0.702,1.908,1.548
		c0.035,0.181,0.054,0.414,0.054,0.595V111.592z M289.138,102.592v4.968h-0.036c-0.396-0.647-1.26-1.134-2.466-1.134
		c-2.106,0-3.942,1.746-3.924,4.68c0,2.7,1.655,4.482,3.762,4.482c1.261,0,2.322-0.612,2.845-1.584h0.035l0.108,1.386h1.962
		c-0.036-0.594-0.072-1.565-0.072-2.466v-10.332H289.138z M264.928,115.39h2.214v-5.166c0-0.252,0.036-0.521,0.108-0.702
		c0.234-0.666,0.846-1.296,1.729-1.296c1.205,0,1.674,0.954,1.674,2.214v4.95h2.213v-5.202c0-2.771-1.584-3.762-3.113-3.762
		c-1.458,0-2.412,0.828-2.809,1.512h-0.054l-0.108-1.313h-1.926c0.036,0.756,0.072,1.602,0.072,2.61V115.39z M259.439,105.364
		c0.756,0,1.242-0.54,1.242-1.188c-0.018-0.684-0.486-1.206-1.242-1.206c-0.738,0-1.242,0.522-1.242,1.206
		c0,0.648,0.486,1.188,1.225,1.188H259.439z M260.537,106.624h-2.213v8.766h2.213V106.624z M241.962,110.35
		c0-0.216,0.036-0.414,0.071-0.576c0.234-0.972,1.062-1.619,1.963-1.619c1.476,0,2.214,1.26,2.214,2.808
		c0,1.782-0.847,2.88-2.231,2.88c-0.955,0-1.729-0.647-1.963-1.548c-0.035-0.162-0.054-0.342-0.054-0.522V110.35z M239.748,112.941
		c0,0.883-0.036,1.854-0.072,2.448h1.891l0.107-1.313h0.036c0.63,1.08,1.638,1.512,2.772,1.512c1.979,0,3.978-1.566,3.978-4.716
		c0.019-2.664-1.513-4.446-3.654-4.446c-1.313,0-2.269,0.559-2.808,1.404h-0.036v-5.238h-2.214V112.941z M229.949,110.08
		c0.09-0.9,0.666-2.143,2.033-2.143c1.477,0,1.836,1.332,1.818,2.143H229.949z M235.816,111.628
		c0.037-0.198,0.072-0.522,0.072-0.937c0-1.926-0.936-4.266-3.779-4.266c-2.809,0-4.285,2.286-4.285,4.716
		c0,2.683,1.675,4.429,4.519,4.429c1.261,0,2.304-0.234,3.06-0.559l-0.324-1.512c-0.684,0.234-1.403,0.396-2.43,0.396
		c-1.404,0-2.646-0.684-2.699-2.268H235.816z M222.888,105.364c0.757,0,1.242-0.54,1.242-1.188
		c-0.019-0.684-0.485-1.206-1.242-1.206c-0.737,0-1.241,0.522-1.241,1.206c0,0.648,0.485,1.188,1.223,1.188H222.888z
		 M223.986,106.624h-2.215v8.766h2.215V106.624z M213.363,115.39h2.213v-4.554c0-0.234,0.019-0.468,0.055-0.666
		c0.197-1.008,0.936-1.674,1.98-1.674c0.27,0,0.467,0.018,0.666,0.054v-2.07c-0.181-0.035-0.307-0.054-0.522-0.054
		c-0.954,0-1.979,0.63-2.412,1.854h-0.054l-0.09-1.656h-1.908c0.054,0.773,0.072,1.638,0.072,2.826V115.39z M205.459,104.986v1.638
		h-1.242v1.656h1.242v4.104c0,1.152,0.216,1.962,0.701,2.466c0.414,0.45,1.08,0.721,1.908,0.721c0.685,0,1.278-0.108,1.603-0.234
		l-0.036-1.674c-0.252,0.072-0.468,0.09-0.863,0.09c-0.847,0-1.135-0.54-1.135-1.62v-3.852h2.105v-1.656h-2.105v-2.25
		L205.459,104.986z M195.275,110.08c0.09-0.9,0.666-2.143,2.034-2.143c1.476,0,1.837,1.332,1.818,2.143H195.275z M201.145,111.628
		c0.035-0.198,0.071-0.522,0.071-0.937c0-1.926-0.937-4.266-3.78-4.266c-2.808,0-4.283,2.286-4.283,4.716
		c0,2.683,1.674,4.429,4.518,4.429c1.26,0,2.304-0.234,3.061-0.559l-0.324-1.512c-0.685,0.234-1.404,0.396-2.431,0.396
		c-1.403,0-2.646-0.684-2.7-2.268H201.145z M183.258,110.35c0-0.216,0.036-0.414,0.072-0.576c0.234-0.972,1.062-1.619,1.962-1.619
		c1.476,0,2.214,1.26,2.214,2.808c0,1.782-0.846,2.88-2.232,2.88c-0.953,0-1.728-0.647-1.961-1.548
		c-0.037-0.162-0.055-0.342-0.055-0.522V110.35z M181.044,112.941c0,0.883-0.036,1.854-0.072,2.448h1.89l0.108-1.313h0.036
		c0.63,1.08,1.639,1.512,2.771,1.512c1.98,0,3.979-1.566,3.979-4.716c0.018-2.664-1.512-4.446-3.654-4.446
		c-1.314,0-2.268,0.559-2.808,1.404h-0.036v-5.238h-2.214V112.941z M168.771,115.39h2.215v-5.166c0-0.252,0.035-0.521,0.107-0.702
		c0.234-0.666,0.846-1.296,1.729-1.296c1.205,0,1.674,0.954,1.674,2.214v4.95h2.214v-5.202c0-2.771-1.584-3.762-3.114-3.762
		c-1.458,0-2.412,0.828-2.809,1.512h-0.053l-0.108-1.313h-1.927c0.037,0.756,0.072,1.602,0.072,2.61V115.39z M158.973,110.08
		c0.09-0.9,0.666-2.143,2.034-2.143c1.476,0,1.836,1.332,1.817,2.143H158.973z M164.841,111.628
		c0.036-0.198,0.071-0.522,0.071-0.937c0-1.926-0.936-4.266-3.779-4.266c-2.809,0-4.284,2.286-4.284,4.716
		c0,2.683,1.675,4.429,4.519,4.429c1.26,0,2.304-0.234,3.06-0.559l-0.323-1.512c-0.685,0.234-1.404,0.396-2.431,0.396
		c-1.403,0-2.646-0.684-2.7-2.268H164.841z M151.91,105.364c0.757,0,1.242-0.54,1.242-1.188c-0.018-0.684-0.485-1.206-1.242-1.206
		c-0.737,0-1.241,0.522-1.241,1.206c0,0.648,0.485,1.188,1.224,1.188H151.91z M153.009,106.624h-2.214v8.766h2.214V106.624z
		 M144.191,115.39h2.213v-12.798h-2.213V115.39z M138.718,105.364c0.756,0,1.242-0.54,1.242-1.188
		c-0.019-0.684-0.486-1.206-1.242-1.206c-0.737,0-1.242,0.522-1.242,1.206c0,0.648,0.486,1.188,1.224,1.188H138.718z
		 M139.816,106.624h-2.215v8.766h2.215V106.624z M120.343,115.39h2.16v-5.184c0-0.252,0.036-0.504,0.108-0.738
		c0.215-0.594,0.773-1.242,1.602-1.242c1.025,0,1.512,0.864,1.512,2.088v5.076h2.16v-5.256c0-0.252,0.036-0.54,0.107-0.738
		c0.234-0.63,0.793-1.17,1.549-1.17c1.062,0,1.566,0.864,1.566,2.322v4.842h2.159v-5.166c0-2.808-1.476-3.798-2.916-3.798
		c-0.737,0-1.296,0.18-1.8,0.522c-0.396,0.252-0.756,0.611-1.062,1.098h-0.035c-0.379-0.972-1.278-1.62-2.43-1.62
		c-1.494,0-2.287,0.811-2.701,1.494h-0.053l-0.109-1.296h-1.889c0.035,0.756,0.071,1.602,0.071,2.61V115.39z M113.865,112.312
		c0,0.162,0,0.324-0.055,0.486c-0.216,0.63-0.846,1.206-1.746,1.206c-0.701,0-1.26-0.396-1.26-1.26c0-1.332,1.494-1.656,3.061-1.639
		V112.312z M116.025,110.134c0-1.926-0.811-3.708-3.619-3.708c-1.385,0-2.52,0.378-3.168,0.774l0.433,1.439
		c0.594-0.378,1.494-0.647,2.358-0.647c1.547,0,1.781,0.954,1.781,1.529v0.145c-3.24-0.019-5.201,1.116-5.201,3.312
		c0,1.332,0.989,2.61,2.754,2.61c1.151,0,2.069-0.486,2.592-1.17h0.054l0.162,0.972h1.998c-0.108-0.54-0.144-1.313-0.144-2.105
		V110.134z M98.758,115.39h2.214v-5.166h4.464v-1.8h-4.464v-3.348h4.806v-1.818h-7.02V115.39z"/>
	<path fill="#B4975A" d="M423.086,91.39h2.214v-5.166c0-0.252,0.036-0.521,0.108-0.702c0.233-0.666,0.846-1.296,1.728-1.296
		c1.206,0,1.674,0.954,1.674,2.214v4.95h2.214v-5.202c0-2.771-1.584-3.762-3.113-3.762c-1.459,0-2.412,0.828-2.809,1.512h-0.054
		l-0.108-1.313h-1.926c0.036,0.756,0.072,1.602,0.072,2.61V91.39z M413.287,86.08c0.09-0.9,0.666-2.143,2.033-2.143
		c1.477,0,1.836,1.332,1.818,2.143H413.287z M419.154,87.628c0.037-0.198,0.072-0.522,0.072-0.937c0-1.926-0.936-4.266-3.779-4.266
		c-2.809,0-4.285,2.286-4.285,4.716c0,2.683,1.675,4.429,4.519,4.429c1.261,0,2.304-0.234,3.06-0.559l-0.323-1.512
		c-0.685,0.234-1.404,0.396-2.431,0.396c-1.403,0-2.646-0.684-2.699-2.268H419.154z M403.293,91.39h2.214v-4.554
		c0-0.234,0.019-0.468,0.054-0.666c0.198-1.008,0.936-1.674,1.98-1.674c0.27,0,0.468,0.018,0.666,0.054v-2.07
		c-0.18-0.035-0.307-0.054-0.522-0.054c-0.952,0-1.979,0.63-2.411,1.854h-0.055l-0.09-1.656h-1.908
		c0.055,0.773,0.072,1.638,0.072,2.826V91.39z M393.494,86.08c0.09-0.9,0.666-2.143,2.033-2.143c1.477,0,1.836,1.332,1.818,2.143
		H393.494z M399.361,87.628c0.037-0.198,0.072-0.522,0.072-0.937c0-1.926-0.936-4.266-3.779-4.266c-2.809,0-4.285,2.286-4.285,4.716
		c0,2.683,1.675,4.429,4.519,4.429c1.261,0,2.304-0.234,3.06-0.559l-0.323-1.512c-0.685,0.234-1.404,0.396-2.431,0.396
		c-1.403,0-2.646-0.684-2.699-2.268H399.361z M381.809,90.958c0.648,0.36,1.602,0.612,2.664,0.612c2.322,0,3.564-1.152,3.564-2.755
		c-0.019-1.296-0.738-2.105-2.34-2.663c-1.116-0.414-1.53-0.666-1.53-1.225c0-0.54,0.432-0.936,1.224-0.936
		c0.774,0,1.494,0.288,1.854,0.504l0.451-1.548c-0.522-0.288-1.369-0.522-2.34-0.522c-2.035,0-3.312,1.188-3.312,2.736
		c0,1.044,0.701,1.979,2.412,2.556c1.08,0.396,1.439,0.685,1.439,1.278c0,0.576-0.432,0.99-1.404,0.99
		c-0.791,0-1.746-0.343-2.231-0.648L381.809,90.958z M370.095,91.39h2.214v-5.166c0-0.252,0.036-0.521,0.108-0.702
		c0.233-0.666,0.846-1.296,1.728-1.296c1.206,0,1.674,0.954,1.674,2.214v4.95h2.215v-5.202c0-2.771-1.584-3.762-3.114-3.762
		c-1.458,0-2.412,0.828-2.808,1.512h-0.055l-0.107-1.313h-1.926c0.035,0.756,0.071,1.602,0.071,2.61V91.39z M365.691,82.624h-2.213
		v5.292c0,0.252-0.037,0.504-0.127,0.684c-0.216,0.576-0.792,1.188-1.691,1.188c-1.17,0-1.639-0.937-1.639-2.395v-4.77h-2.214v5.147
		c0,2.862,1.458,3.816,3.042,3.816s2.448-0.9,2.826-1.512h0.055l0.107,1.313h1.926c-0.035-0.72-0.072-1.584-0.072-2.628V82.624z
		 M343.841,80.986v1.638h-1.242v1.656h1.242v4.104c0,1.152,0.216,1.962,0.702,2.466c0.414,0.45,1.08,0.721,1.908,0.721
		c0.684,0,1.277-0.108,1.602-0.234l-0.036-1.674c-0.252,0.072-0.468,0.09-0.864,0.09c-0.846,0-1.133-0.54-1.133-1.62V84.28h2.105
		v-1.656h-2.105v-2.25L343.841,80.986z M333.324,90.958c0.648,0.36,1.603,0.612,2.664,0.612c2.322,0,3.564-1.152,3.564-2.755
		c-0.018-1.296-0.738-2.105-2.34-2.663c-1.116-0.414-1.53-0.666-1.53-1.225c0-0.54,0.433-0.936,1.224-0.936
		c0.774,0,1.494,0.288,1.854,0.504l0.45-1.548c-0.521-0.288-1.368-0.522-2.34-0.522c-2.034,0-3.312,1.188-3.312,2.736
		c0,1.044,0.702,1.979,2.412,2.556c1.08,0.396,1.439,0.685,1.439,1.278c0,0.576-0.432,0.99-1.403,0.99
		c-0.792,0-1.746-0.343-2.231-0.648L333.324,90.958z M329.461,82.624h-2.215v5.292c0,0.252-0.035,0.504-0.125,0.684
		c-0.217,0.576-0.793,1.188-1.692,1.188c-1.17,0-1.638-0.937-1.638-2.395v-4.77h-2.215v5.147c0,2.862,1.459,3.816,3.043,3.816
		s2.447-0.9,2.826-1.512h0.054l0.108,1.313h1.926c-0.037-0.72-0.072-1.584-0.072-2.628V82.624z M315.037,87.556
		c0,0.252-0.018,0.559-0.09,0.774c-0.252,0.81-0.973,1.35-1.801,1.35c-1.386,0-2.142-1.206-2.142-2.7
		c0-1.781,0.918-2.861,2.16-2.861c0.936,0,1.565,0.611,1.8,1.422c0.055,0.18,0.072,0.378,0.072,0.594V87.556z M317.251,85.144
		c0-1.206,0.036-1.926,0.071-2.52h-1.926l-0.09,1.17h-0.035c-0.414-0.72-1.188-1.368-2.539-1.368c-2.105,0-3.978,1.746-3.978,4.626
		c0,2.484,1.548,4.284,3.726,4.284c1.17,0,2.053-0.522,2.557-1.296h0.035v0.756c0,1.89-1.08,2.646-2.52,2.646
		c-1.062,0-1.998-0.342-2.557-0.665l-0.485,1.674c0.756,0.449,1.944,0.702,3.06,0.702c1.207,0,2.484-0.253,3.385-1.062
		c0.918-0.828,1.296-2.142,1.296-3.978V85.144z M304.869,82.624h-2.215v5.292c0,0.252-0.035,0.504-0.125,0.684
		c-0.217,0.576-0.793,1.188-1.692,1.188c-1.17,0-1.638-0.937-1.638-2.395v-4.77h-2.215v5.147c0,2.862,1.459,3.816,3.043,3.816
		s2.447-0.9,2.826-1.512h0.053l0.108,1.313h1.927c-0.037-0.72-0.072-1.584-0.072-2.628V82.624z M286.658,86.278l0.937-2.988
		c0.216-0.72,0.396-1.566,0.576-2.269h0.036c0.18,0.702,0.378,1.53,0.611,2.269l0.955,2.988H286.658z M290.15,87.952l1.099,3.438
		h2.376l-3.942-12.132h-2.825l-3.889,12.132h2.286l1.044-3.438H290.15z M267.418,86.35c0-0.216,0.035-0.414,0.072-0.576
		c0.233-0.972,1.062-1.619,1.961-1.619c1.477,0,2.215,1.26,2.215,2.808c0,1.782-0.846,2.88-2.232,2.88
		c-0.953,0-1.728-0.647-1.962-1.548c-0.036-0.162-0.054-0.342-0.054-0.522V86.35z M265.203,88.941c0,0.883-0.035,1.854-0.071,2.448
		h1.89l0.108-1.313h0.036c0.63,1.08,1.638,1.512,2.771,1.512c1.98,0,3.979-1.566,3.979-4.716c0.018-2.664-1.512-4.446-3.654-4.446
		c-1.314,0-2.268,0.559-2.809,1.404h-0.035v-5.238h-2.215V88.941z M258.701,88.312c0,0.162,0,0.324-0.053,0.486
		c-0.217,0.63-0.847,1.206-1.746,1.206c-0.703,0-1.261-0.396-1.261-1.26c0-1.332,1.494-1.656,3.06-1.639V88.312z M260.861,86.134
		c0-1.926-0.81-3.708-3.617-3.708c-1.387,0-2.521,0.378-3.168,0.774l0.432,1.439c0.594-0.378,1.494-0.647,2.357-0.647
		c1.549,0,1.783,0.954,1.783,1.529v0.145c-3.24-0.019-5.203,1.116-5.203,3.312c0,1.332,0.99,2.61,2.754,2.61
		c1.152,0,2.07-0.486,2.593-1.17h0.054l0.162,0.972h1.998c-0.107-0.54-0.145-1.313-0.145-2.105V86.134z M239.604,91.39h2.215v-4.554
		c0-0.234,0.018-0.468,0.053-0.666c0.199-1.008,0.937-1.674,1.98-1.674c0.27,0,0.469,0.018,0.666,0.054v-2.07
		c-0.18-0.035-0.306-0.054-0.521-0.054c-0.954,0-1.98,0.63-2.412,1.854h-0.055l-0.09-1.656h-1.908
		c0.055,0.773,0.072,1.638,0.072,2.826V91.39z M234.115,81.364c0.756,0,1.242-0.54,1.242-1.188
		c-0.018-0.684-0.486-1.206-1.242-1.206c-0.737,0-1.241,0.522-1.241,1.206c0,0.648,0.485,1.188,1.224,1.188H234.115z
		 M235.214,82.624H233v8.766h2.214V82.624z M216.518,82.624l2.592,8.766h2.07l1.116-3.563c0.252-0.864,0.468-1.729,0.666-2.809
		h0.036c0.197,1.062,0.396,1.891,0.666,2.809l1.044,3.563h2.052l2.754-8.766h-2.178l-0.973,3.888
		c-0.233,1.026-0.449,1.98-0.576,2.935h-0.035c-0.198-0.954-0.432-1.908-0.702-2.935l-1.099-3.888h-1.799L221,86.62
		c-0.234,0.899-0.521,1.89-0.702,2.826h-0.036c-0.162-0.954-0.359-1.908-0.576-2.845l-0.9-3.978H216.518z M201.361,90.958
		c0.648,0.36,1.603,0.612,2.664,0.612c2.322,0,3.564-1.152,3.564-2.755c-0.018-1.296-0.738-2.105-2.34-2.663
		c-1.116-0.414-1.53-0.666-1.53-1.225c0-0.54,0.433-0.936,1.224-0.936c0.774,0,1.494,0.288,1.854,0.504l0.45-1.548
		c-0.522-0.288-1.368-0.522-2.34-0.522c-2.034,0-3.312,1.188-3.312,2.736c0,1.044,0.702,1.979,2.412,2.556
		c1.08,0.396,1.439,0.685,1.439,1.278c0,0.576-0.432,0.99-1.403,0.99c-0.792,0-1.746-0.343-2.231-0.648L201.361,90.958z
		 M191.938,90.958c0.648,0.36,1.603,0.612,2.664,0.612c2.322,0,3.564-1.152,3.564-2.755c-0.018-1.296-0.738-2.105-2.34-2.663
		c-1.116-0.414-1.53-0.666-1.53-1.225c0-0.54,0.433-0.936,1.224-0.936c0.774,0,1.494,0.288,1.854,0.504l0.45-1.548
		c-0.522-0.288-1.368-0.522-2.34-0.522c-2.035,0-3.312,1.188-3.312,2.736c0,1.044,0.702,1.979,2.412,2.556
		c1.08,0.396,1.439,0.685,1.439,1.278c0,0.576-0.432,0.99-1.404,0.99c-0.791,0-1.745-0.343-2.231-0.648L191.938,90.958z
		 M186.01,88.312c0,0.162,0,0.324-0.054,0.486c-0.216,0.63-0.847,1.206-1.746,1.206c-0.702,0-1.261-0.396-1.261-1.26
		c0-1.332,1.494-1.656,3.061-1.639V88.312z M188.17,86.134c0-1.926-0.811-3.708-3.618-3.708c-1.386,0-2.521,0.378-3.168,0.774
		l0.433,1.439c0.594-0.378,1.493-0.647,2.357-0.647c1.548,0,1.782,0.954,1.782,1.529v0.145c-3.24-0.019-5.202,1.116-5.202,3.312
		c0,1.332,0.99,2.61,2.754,2.61c1.152,0,2.07-0.486,2.592-1.17h0.055l0.162,0.972h1.998c-0.108-0.54-0.145-1.313-0.145-2.105V86.134
		z M174.755,87.592c0,0.234-0.019,0.45-0.072,0.648c-0.216,0.954-1.008,1.565-1.907,1.565c-1.404,0-2.197-1.17-2.197-2.79
		s0.793-2.88,2.215-2.88c1.008,0,1.71,0.702,1.908,1.548c0.035,0.181,0.054,0.414,0.054,0.595V87.592z M174.755,78.592v4.968h-0.036
		c-0.396-0.647-1.26-1.134-2.466-1.134c-2.106,0-3.942,1.746-3.925,4.68c0,2.7,1.656,4.482,3.763,4.482
		c1.26,0,2.321-0.612,2.844-1.584h0.036l0.107,1.386h1.963c-0.036-0.594-0.072-1.565-0.072-2.466V78.592H174.755z"/>
	<path fill="#B4975A" d="M463.834,69.424c0.702-1.152,1.494-3.096,2.016-4.788l-2.321,0.18c-0.234,1.494-0.72,3.385-1.206,4.753
		L463.834,69.424z M450.971,67.39h2.213v-5.166c0-0.252,0.037-0.521,0.108-0.702c0.234-0.666,0.847-1.296,1.728-1.296
		c1.207,0,1.675,0.954,1.675,2.214v4.95h2.214v-5.202c0-2.771-1.584-3.762-3.114-3.762c-1.458,0-2.411,0.828-2.808,1.512h-0.055
		l-0.107-1.313h-1.926c0.035,0.756,0.072,1.602,0.072,2.61V67.39z M441.172,62.08c0.09-0.9,0.666-2.143,2.033-2.143
		c1.477,0,1.836,1.332,1.818,2.143H441.172z M447.039,63.628c0.036-0.198,0.072-0.522,0.072-0.937c0-1.926-0.936-4.266-3.78-4.266
		c-2.808,0-4.284,2.286-4.284,4.716c0,2.683,1.674,4.429,4.519,4.429c1.26,0,2.304-0.234,3.06-0.559l-0.324-1.512
		c-0.684,0.234-1.404,0.396-2.43,0.396c-1.404,0-2.646-0.684-2.699-2.268H447.039z M429.152,62.35c0-0.216,0.035-0.414,0.072-0.576
		c0.233-0.972,1.062-1.619,1.961-1.619c1.477,0,2.215,1.26,2.215,2.808c0,1.782-0.846,2.88-2.232,2.88
		c-0.953,0-1.728-0.647-1.962-1.548c-0.036-0.162-0.054-0.342-0.054-0.522V62.35z M426.938,64.941c0,0.883-0.035,1.854-0.071,2.448
		h1.89l0.108-1.313h0.036c0.63,1.08,1.638,1.512,2.771,1.512c1.98,0,3.979-1.566,3.979-4.716c0.018-2.664-1.512-4.446-3.654-4.446
		c-1.314,0-2.268,0.559-2.809,1.404h-0.035v-5.238h-2.215V64.941z M417.139,62.08c0.09-0.9,0.666-2.143,2.035-2.143
		c1.476,0,1.836,1.332,1.817,2.143H417.139z M423.008,63.628c0.035-0.198,0.071-0.522,0.071-0.937c0-1.926-0.937-4.266-3.78-4.266
		c-2.808,0-4.283,2.286-4.283,4.716c0,2.683,1.674,4.429,4.518,4.429c1.26,0,2.305-0.234,3.061-0.559L422.27,65.5
		c-0.685,0.234-1.404,0.396-2.43,0.396c-1.404,0-2.646-0.684-2.701-2.268H423.008z M408.924,63.556c0,0.252-0.018,0.559-0.09,0.774
		c-0.252,0.81-0.972,1.35-1.8,1.35c-1.386,0-2.142-1.206-2.142-2.7c0-1.781,0.918-2.861,2.16-2.861c0.936,0,1.565,0.611,1.799,1.422
		c0.055,0.18,0.072,0.378,0.072,0.594V63.556z M411.139,61.144c0-1.206,0.035-1.926,0.071-2.52h-1.926l-0.09,1.17h-0.036
		c-0.414-0.72-1.188-1.368-2.538-1.368c-2.106,0-3.978,1.746-3.978,4.626c0,2.484,1.548,4.284,3.726,4.284
		c1.17,0,2.052-0.522,2.556-1.296h0.036v0.756c0,1.89-1.079,2.646-2.52,2.646c-1.062,0-1.998-0.342-2.556-0.665l-0.486,1.674
		c0.756,0.449,1.943,0.702,3.06,0.702c1.206,0,2.484-0.253,3.384-1.062c0.918-0.828,1.297-2.142,1.297-3.978V61.144z M392.76,58.624
		h-2.213v5.292c0,0.252-0.037,0.504-0.127,0.684c-0.216,0.576-0.791,1.188-1.691,1.188c-1.17,0-1.639-0.937-1.639-2.395v-4.77
		h-2.214v5.147c0,2.862,1.458,3.816,3.042,3.816s2.448-0.9,2.826-1.512h0.055l0.107,1.313h1.926
		c-0.035-0.72-0.072-1.584-0.072-2.628V58.624z M374.024,67.39h7.38v-1.764h-4.607V65.59c0.449-0.468,0.863-0.972,1.295-1.494
		l3.205-4.122v-1.35h-6.949v1.764h4.248v0.036c-0.449,0.504-0.828,0.937-1.277,1.476l-3.294,4.213V67.39z M360.85,56.986v1.638
		h-1.242v1.656h1.242v4.104c0,1.152,0.216,1.962,0.701,2.466c0.414,0.45,1.08,0.721,1.908,0.721c0.684,0,1.278-0.108,1.602-0.234
		l-0.035-1.674c-0.252,0.072-0.469,0.09-0.864,0.09c-0.846,0-1.134-0.54-1.134-1.62V60.28h2.105v-1.656h-2.105v-2.25L360.85,56.986z
		 M348.283,67.39h2.214v-5.166c0-0.252,0.036-0.521,0.108-0.702c0.234-0.666,0.846-1.296,1.728-1.296
		c1.206,0,1.675,0.954,1.675,2.214v4.95h2.213v-5.202c0-2.771-1.584-3.762-3.113-3.762c-1.458,0-2.412,0.828-2.809,1.512h-0.054
		l-0.108-1.313h-1.926c0.036,0.756,0.072,1.602,0.072,2.61V67.39z M336.012,67.39h2.213v-5.166c0-0.252,0.037-0.521,0.108-0.702
		c0.234-0.666,0.847-1.296,1.728-1.296c1.207,0,1.675,0.954,1.675,2.214v4.95h2.214v-5.202c0-2.771-1.584-3.762-3.114-3.762
		c-1.458,0-2.411,0.828-2.808,1.512h-0.055l-0.107-1.313h-1.926c0.035,0.756,0.072,1.602,0.072,2.61V67.39z M329.533,64.312
		c0,0.162,0,0.324-0.055,0.486c-0.215,0.63-0.846,1.206-1.745,1.206c-0.702,0-1.261-0.396-1.261-1.26
		c0-1.332,1.494-1.656,3.061-1.639V64.312z M331.693,62.134c0-1.926-0.811-3.708-3.618-3.708c-1.386,0-2.521,0.378-3.168,0.774
		l0.433,1.439c0.594-0.378,1.493-0.647,2.357-0.647c1.548,0,1.781,0.954,1.781,1.529v0.145c-3.239-0.019-5.201,1.116-5.201,3.312
		c0,1.332,0.99,2.61,2.754,2.61c1.152,0,2.07-0.486,2.592-1.17h0.055l0.162,0.972h1.998c-0.109-0.54-0.145-1.313-0.145-2.105V62.134
		z M315.784,54.592h-2.214V67.39h2.214v-2.987l0.737-0.883l2.521,3.87h2.718l-3.707-5.184l3.258-3.582h-2.664l-2.143,2.826
		c-0.216,0.306-0.468,0.684-0.684,1.025h-0.036V54.592z M303.748,62.08c0.09-0.9,0.666-2.143,2.034-2.143
		c1.476,0,1.836,1.332,1.817,2.143H303.748z M309.616,63.628c0.036-0.198,0.071-0.522,0.071-0.937c0-1.926-0.936-4.266-3.779-4.266
		c-2.809,0-4.284,2.286-4.284,4.716c0,2.683,1.675,4.429,4.519,4.429c1.26,0,2.304-0.234,3.06-0.559l-0.323-1.512
		c-0.685,0.234-1.404,0.396-2.431,0.396c-1.403,0-2.646-0.684-2.7-2.268H309.616z M291.73,62.35c0-0.216,0.035-0.414,0.072-0.576
		c0.233-0.972,1.062-1.619,1.961-1.619c1.477,0,2.215,1.26,2.215,2.808c0,1.782-0.846,2.88-2.232,2.88
		c-0.954,0-1.729-0.647-1.962-1.548c-0.036-0.162-0.054-0.342-0.054-0.522V62.35z M289.516,64.941c0,0.883-0.035,1.854-0.071,2.448
		h1.89l0.108-1.313h0.036c0.63,1.08,1.638,1.512,2.771,1.512c1.98,0,3.979-1.566,3.979-4.716c0.018-2.664-1.512-4.446-3.654-4.446
		c-1.314,0-2.268,0.559-2.809,1.404h-0.035v-5.238h-2.215V64.941z M277.69,69.424c0.702-1.152,1.493-3.096,2.016-4.788l-2.321,0.18
		c-0.234,1.494-0.721,3.385-1.207,4.753L277.69,69.424z M267.034,66.958c0.647,0.36,1.603,0.612,2.664,0.612
		c2.321,0,3.563-1.152,3.563-2.755c-0.018-1.296-0.737-2.105-2.34-2.663c-1.115-0.414-1.529-0.666-1.529-1.225
		c0-0.54,0.432-0.936,1.224-0.936c0.774,0,1.494,0.288,1.854,0.504l0.449-1.548c-0.521-0.288-1.367-0.522-2.34-0.522
		c-2.033,0-3.312,1.188-3.312,2.736c0,1.044,0.703,1.979,2.412,2.556c1.08,0.396,1.44,0.685,1.44,1.278
		c0,0.576-0.433,0.99-1.403,0.99c-0.793,0-1.746-0.343-2.232-0.648L267.034,66.958z M255.32,67.39h2.214v-5.166
		c0-0.252,0.036-0.521,0.108-0.702c0.233-0.666,0.846-1.296,1.728-1.296c1.206,0,1.675,0.954,1.675,2.214v4.95h2.213v-5.202
		c0-2.771-1.584-3.762-3.113-3.762c-1.459,0-2.412,0.828-2.809,1.512h-0.054l-0.108-1.313h-1.926
		c0.036,0.756,0.072,1.602,0.072,2.61V67.39z M250.917,58.624h-2.214v5.292c0,0.252-0.036,0.504-0.126,0.684
		c-0.216,0.576-0.792,1.188-1.692,1.188c-1.17,0-1.638-0.937-1.638-2.395v-4.77h-2.214v5.147c0,2.862,1.458,3.816,3.042,3.816
		s2.448-0.9,2.826-1.512h0.054l0.107,1.313h1.927c-0.036-0.72-0.072-1.584-0.072-2.628V58.624z M224.729,67.39h2.214v-5.166
		c0-0.252,0.036-0.521,0.108-0.702c0.233-0.666,0.846-1.296,1.728-1.296c1.206,0,1.674,0.954,1.674,2.214v4.95h2.214v-5.202
		c0-2.771-1.584-3.762-3.113-3.762c-1.459,0-2.412,0.828-2.809,1.512h-0.054l-0.108-1.313h-1.926
		c0.036,0.756,0.072,1.602,0.072,2.61V67.39z M214.93,62.08c0.09-0.9,0.666-2.143,2.033-2.143c1.477,0,1.836,1.332,1.818,2.143
		H214.93z M220.797,63.628c0.036-0.198,0.072-0.522,0.072-0.937c0-1.926-0.936-4.266-3.779-4.266c-2.809,0-4.285,2.286-4.285,4.716
		c0,2.683,1.674,4.429,4.519,4.429c1.26,0,2.304-0.234,3.06-0.559l-0.324-1.512c-0.684,0.234-1.403,0.396-2.43,0.396
		c-1.404,0-2.646-0.684-2.699-2.268H220.797z M208.92,58.624h-2.215v5.292c0,0.252-0.035,0.504-0.126,0.684
		c-0.216,0.576-0.792,1.188-1.692,1.188c-1.17,0-1.638-0.937-1.638-2.395v-4.77h-2.214v5.147c0,2.862,1.458,3.816,3.042,3.816
		s2.448-0.9,2.826-1.512h0.054l0.108,1.313h1.926c-0.036-0.72-0.071-1.584-0.071-2.628V58.624z M191.29,62.08
		c0.091-0.9,0.666-2.143,2.034-2.143c1.477,0,1.836,1.332,1.818,2.143H191.29z M197.158,63.628c0.036-0.198,0.072-0.522,0.072-0.937
		c0-1.926-0.936-4.266-3.78-4.266c-2.808,0-4.284,2.286-4.284,4.716c0,2.683,1.674,4.429,4.518,4.429
		c1.261,0,2.305-0.234,3.061-0.559L196.42,65.5c-0.684,0.234-1.404,0.396-2.43,0.396c-1.404,0-2.646-0.684-2.7-2.268H197.158z
		 M181.297,67.39h2.213v-4.554c0-0.234,0.019-0.468,0.055-0.666c0.197-1.008,0.936-1.674,1.98-1.674c0.27,0,0.467,0.018,0.666,0.054
		v-2.07c-0.181-0.035-0.307-0.054-0.523-0.054c-0.953,0-1.979,0.63-2.411,1.854h-0.054l-0.09-1.656h-1.908
		c0.054,0.773,0.072,1.638,0.072,2.826V67.39z M175.92,67.39V60.28h1.908v-1.656h-1.926v-0.45c0-1.08,0.359-1.998,1.458-1.998
		c0.414,0,0.702,0.072,0.954,0.162l0.144-1.71c-0.342-0.108-0.81-0.216-1.403-0.216c-0.756,0-1.639,0.233-2.287,0.846
		c-0.756,0.72-1.062,1.854-1.062,2.988v0.378h-1.188v1.656h1.188v7.109H175.92z M159.001,67.39h2.214v-4.554
		c0-0.234,0.019-0.468,0.055-0.666c0.197-1.008,0.936-1.674,1.979-1.674c0.271,0,0.468,0.018,0.666,0.054v-2.07
		c-0.18-0.035-0.306-0.054-0.522-0.054c-0.953,0-1.979,0.63-2.411,1.854h-0.054l-0.09-1.656h-1.908
		c0.054,0.773,0.071,1.638,0.071,2.826V67.39z M153.512,57.364c0.756,0,1.242-0.54,1.242-1.188
		c-0.018-0.684-0.486-1.206-1.242-1.206c-0.737,0-1.242,0.522-1.242,1.206c0,0.648,0.486,1.188,1.225,1.188H153.512z M154.61,58.624
		h-2.214v8.766h2.214V58.624z M139.1,67.39l1.404-5.706c0.36-1.386,0.594-2.556,0.793-3.852h0.035
		c0.162,1.313,0.379,2.466,0.684,3.834l1.261,5.724h2.358l3.275-12.132h-2.25l-1.26,5.472c-0.324,1.494-0.612,2.862-0.828,4.212
		h-0.036c-0.18-1.313-0.45-2.663-0.737-4.104l-1.207-5.58h-2.322l-1.313,5.472c-0.342,1.549-0.685,2.988-0.882,4.267h-0.036
		c-0.198-1.206-0.485-2.754-0.792-4.23l-1.152-5.508h-2.357l2.97,12.132H139.1z"/>
</g>
</svg>
